<?xml version="1.0" encoding="UTF-8"?>
<!DOCTYPE svg PUBLIC "-//W3C//DTD SVG 1.1//EN" "http://www.w3.org/Graphics/SVG/1.1/DTD/svg11.dtd">
<!-- Creator: CorelDRAW 2021 (64-Bit) -->
<svg xmlns="http://www.w3.org/2000/svg" xml:space="preserve" width="24.3232mm" height="8.4667mm" version="1.1" style="shape-rendering:geometricPrecision; text-rendering:geometricPrecision; image-rendering:optimizeQuality; fill-rule:evenodd; clip-rule:evenodd"
viewBox="0 0 5893.67 2051.54"
 xmlns:xlink="http://www.w3.org/1999/xlink"
 xmlns:xodm="http://www.corel.com/coreldraw/odm/2003">
 <defs>
  <style type="text/css">
   <![CDATA[
    .fil1 {fill:#3FAB3C;fill-rule:nonzero}
    .fil0 {fill:#0060AA;fill-rule:nonzero}
   ]]>
  </style>
 </defs>
 <g id="Layer_x0020_1">
  <metadata id="CorelCorpID_0Corel-Layer"/>
  <path class="fil0" d="M220.93 1114.46c-76.88,0 -132.93,-19.21 -168.14,-57.67 -35.18,-38.45 -52.77,-96.66 -52.77,-174.65l0 -865.86 770 0 -55.25 199.81 -484.08 0 0 261.55 428.86 0 -9.74 199.83 -419.12 0 0 131.57c0,42.26 7.85,70.41 23.55,84.49 15.7,14.08 43.59,21.1 83.64,21.1l433.75 0 -55.25 199.83 -495.47 0zm1665.11 0l-155.95 0 -575.07 -706.66 0 706.66 -216.06 0 0 -1098.18 164.07 0 566.97 687.18 0 -687.18 216.04 0 0 1098.18zm995.81 -1098.18l264.79 0 -461.35 1098.18 -191.69 0 -472.72 -1098.18 263.17 0 302.16 753.77 14.61 0 281.03 -753.77zm638.43 1098.18l-230.68 0 0 -1098.18 230.68 0 0 1098.18zm672.55 -576.71c61.74,0 108.84,-13.25 141.31,-39.79 32.49,-26.56 48.75,-67.97 48.75,-124.28 0,-58.49 -16.79,-99.37 -50.35,-122.66 -33.58,-23.29 -81.25,-34.94 -142.96,-34.94l-193.31 0 0 321.66 196.56 0zm318.39 576.71c-41.14,0 -73.64,-7.32 -97.46,-21.93 -23.84,-14.64 -47.66,-39.28 -71.48,-73.93l-167.34 -243.66c-10.83,-16.26 -20.84,-26.56 -30.05,-30.87 -9.21,-4.34 -23.02,-6.52 -41.43,-6.52l-107.2 0 0 376.91 -230.68 0 0 -1098.18 441.85 0c63.9,0 121.03,6.49 171.38,19.48 50.38,13.01 93.14,33.32 128.35,60.94 35.18,27.6 61.98,63.9 80.4,108.82 18.42,44.95 27.62,98.84 27.62,161.64 0,32.49 -4.34,65.52 -13.01,99.1 -8.65,33.58 -22.2,65.52 -40.59,95.86 -18.42,30.31 -41.7,57.14 -69.86,80.42 -28.16,23.26 -61.74,41.41 -100.73,54.42l118.58 172.18c11.92,16.26 23.84,27.89 35.74,34.94 11.92,7.03 27.62,10.54 47.1,10.54l103.97 0 -55.22 199.83 -129.97 0zm1382.45 -549.09c0,87.74 -14.64,166.51 -43.88,236.37 -29.22,69.86 -69.3,129.15 -120.21,177.88 -50.88,48.75 -110.47,86.12 -178.7,112.09 -68.21,26 -140.78,38.99 -217.66,38.99 -76.91,0 -149.45,-12.99 -217.69,-38.99 -68.23,-25.98 -127.79,-63.34 -178.7,-112.09 -50.88,-48.73 -91.23,-108.02 -121.03,-177.88 -29.76,-69.86 -44.66,-148.63 -44.66,-236.37 0,-87.74 14.9,-166.51 44.66,-236.37 29.8,-69.86 70.15,-129.15 121.03,-177.9 50.91,-48.73 110.47,-86.09 178.7,-112.07 68.23,-26 140.78,-38.99 217.69,-38.99 76.88,0 149.45,12.99 217.66,38.99 68.23,25.98 127.82,63.34 178.7,112.07 50.91,48.75 90.99,108.04 120.21,177.9 29.25,69.86 43.88,148.63 43.88,236.37zm-883.74 0c0,53.07 7.85,102.08 23.58,147.01 15.7,44.95 37.9,83.67 66.59,116.16 28.69,32.49 62.81,57.67 102.35,75.55 39.52,17.86 83.11,26.8 130.77,26.8 46.55,0 89.87,-8.94 129.95,-26.8 40.08,-17.88 74.19,-43.06 102.35,-75.55 28.16,-32.49 50.35,-71.21 66.59,-116.16 16.26,-44.92 24.38,-93.94 24.38,-147.01 0,-53.07 -8.12,-102.08 -24.38,-147.03 -16.23,-44.95 -38.43,-83.64 -66.59,-116.14 -28.16,-32.49 -62.27,-57.69 -102.35,-75.55 -40.08,-17.86 -83.4,-26.8 -129.95,-26.8 -47.66,0 -91.25,8.94 -130.77,26.8 -39.54,17.86 -73.66,43.06 -102.35,75.55 -28.69,32.49 -50.88,71.19 -66.59,116.14 -15.73,44.95 -23.58,93.97 -23.58,147.03z"/>
  <path class="fil1" d="M288.3 1956.31c54.91,0 95.57,-11.05 121.95,-33.15 26.36,-22.12 39.57,-50.28 39.57,-84.52 0,-19.24 -3.93,-35.11 -11.78,-47.59 -7.83,-12.48 -18.9,-23.19 -33.15,-32.08 -14.27,-8.92 -31.38,-16.77 -51.34,-23.55 -19.97,-6.76 -42.06,-13.71 -66.32,-20.86 -23.53,-7.12 -47.78,-15.14 -72.74,-24.06 -24.96,-8.92 -47.59,-20.86 -67.92,-35.81 -20.31,-14.97 -37.07,-34.07 -50.25,-57.23 -13.21,-23.19 -19.8,-52.58 -19.8,-88.25 0,-34.24 6.59,-64.19 19.8,-89.85 13.18,-25.68 31.18,-46.72 54.01,-63.12 22.8,-16.4 50.08,-28.69 81.83,-36.9 31.72,-8.19 66.13,-12.28 103.22,-12.28 34.94,0 68.09,3.03 99.47,9.09 31.38,6.06 62.03,13.01 91.98,20.86l-7.49 97.33c-32.08,-9.98 -63.46,-17.83 -94.11,-23.53 -30.68,-5.72 -59.9,-8.55 -87.71,-8.55 -49.21,0 -85.75,8.55 -109.64,25.66 -23.89,17.11 -35.84,41.73 -35.84,73.81 0,17.83 3.39,32.61 10.18,44.39 6.76,11.78 16.57,21.93 29.42,30.48 12.82,8.55 28.69,16.04 47.59,22.46 18.9,6.42 40.47,13.21 64.72,20.33 29.22,8.55 57.21,17.64 83.96,27.26 26.75,9.64 50.28,21.93 70.58,36.9 20.33,15 36.56,33.87 48.68,56.7 12.12,22.83 18.17,51.71 18.17,86.65 0,37.07 -6.76,69.52 -20.31,97.33 -13.57,27.82 -32.44,51.15 -56.7,70.05 -24.25,18.9 -53.11,33.17 -86.65,42.79 -33.51,9.62 -69.86,14.44 -109.09,14.44 -39.93,0 -80.59,-4.46 -121.93,-13.38 -41.36,-8.92 -78.8,-21.2 -112.31,-36.9l12.82 -101.6c34.24,17.81 69.88,31.72 106.95,41.7 37.1,9.98 73.83,14.97 110.18,14.97zm742.33 1.07c32.78,0 64.16,-6.23 94.11,-18.71 29.95,-12.48 56.53,-30.48 79.69,-54.03 23.19,-23.53 41.53,-52.39 55.08,-86.62 13.57,-34.24 20.33,-73.44 20.33,-117.66 0,-44.92 -6.59,-84.69 -19.8,-119.26 -13.18,-34.58 -31.18,-63.65 -54.01,-87.18 -22.8,-23.53 -49.38,-41.53 -79.69,-54.01 -30.29,-12.48 -62.2,-18.73 -95.71,-18.73 -33.54,0 -65.42,6.25 -95.74,18.73 -30.31,12.48 -56.87,30.48 -79.69,54.01 -22.8,23.53 -40.8,52.6 -54.01,87.18 -13.18,34.58 -19.8,74.34 -19.8,119.26 0,44.22 6.78,83.43 20.33,117.66 13.54,34.24 31.91,63.1 55.08,86.62 23.19,23.55 49.75,41.56 79.69,54.03 29.95,12.48 61.33,18.71 94.14,18.71zm0 94.14c-49.92,0 -97,-8.38 -141.19,-25.13 -44.22,-16.77 -82.89,-41 -116.06,-72.74 -33.15,-31.74 -59.37,-70.61 -78.6,-116.6 -19.26,-45.99 -28.88,-98.23 -28.88,-156.7 0,-59.2 9.81,-111.95 29.42,-158.3 19.6,-46.35 46.16,-85.39 79.69,-117.13 33.51,-31.74 72.38,-55.97 116.57,-72.74 44.22,-16.74 90.57,-25.13 139.06,-25.13 48.49,0 94.84,8.38 139.04,25.13 44.22,16.77 83.09,41 116.6,72.74 33.51,31.74 60.07,70.78 79.69,117.13 19.6,46.35 29.39,99.1 29.39,158.3 0,58.47 -9.62,110.71 -28.86,156.7 -19.26,45.99 -45.46,84.86 -78.63,116.6 -33.15,31.74 -71.84,55.97 -116.04,72.74 -44.22,16.74 -91.28,25.13 -141.19,25.13zm619.31 -180.76c0,27.09 5.16,46.16 15.51,57.21 10.32,11.05 28.69,16.6 55.08,16.6l283.45 0 -33.15 96.27 -289.87 0c-50.64,0 -87.01,-11.78 -109.11,-35.3 -22.1,-23.53 -33.15,-59.53 -33.15,-108.04l0 -579.74 111.24 0 0 553.02zm709.16 180.76c-93.41,0 -165.79,-22.83 -217.13,-68.45 -51.34,-45.65 -77.03,-115.9 -77.03,-210.73l0 -454.59 111.24 0 0 450.33c0,60.6 15.14,106.95 45.46,139.06 30.31,32.08 76.13,48.12 137.46,48.12 60.6,0 106.06,-16.04 136.37,-48.12 30.31,-32.11 45.46,-78.46 45.46,-139.06l0 -450.33 111.24 0 0 454.59c0,94.84 -25.68,165.08 -77,210.73 -51.34,45.63 -123.38,68.45 -216.06,68.45zm960.5 -637.51l-228.88 0 0 626.82 -111.24 0 0 -626.82 -243.88 0 0 -96.27 617.18 0 -33.17 96.27zm242.82 626.82l-111.24 0 0 -723.09 111.24 0 0 723.09zm512.33 -83.45c32.81,0 64.19,-6.23 94.14,-18.71 29.95,-12.48 56.51,-30.48 79.67,-54.03 23.19,-23.53 41.56,-52.39 55.1,-86.62 13.54,-34.24 20.33,-73.44 20.33,-117.66 0,-44.92 -6.61,-84.69 -19.8,-119.26 -13.18,-34.58 -31.18,-63.65 -54.01,-87.18 -22.83,-23.53 -49.38,-41.53 -79.69,-54.01 -30.31,-12.48 -62.22,-18.73 -95.74,-18.73 -33.51,0 -65.42,6.25 -95.74,18.73 -30.29,12.48 -56.87,30.48 -79.67,54.01 -22.83,23.53 -40.83,52.6 -54.03,87.18 -13.18,34.58 -19.77,74.34 -19.77,119.26 0,44.22 6.76,83.43 20.31,117.66 13.57,34.24 31.91,63.1 55.1,86.62 23.16,23.55 49.75,41.56 79.69,54.03 29.95,12.48 61.3,18.71 94.11,18.71zm0 94.14c-49.92,0 -96.97,-8.38 -141.19,-25.13 -44.2,-16.77 -82.89,-41 -116.04,-72.74 -33.17,-31.74 -59.37,-70.61 -78.63,-116.6 -19.24,-45.99 -28.88,-98.23 -28.88,-156.7 0,-59.2 9.81,-111.95 29.42,-158.3 19.63,-46.35 46.18,-85.39 79.69,-117.13 33.51,-31.74 72.38,-55.97 116.57,-72.74 44.22,-16.74 90.57,-25.13 139.06,-25.13 48.49,0 94.84,8.38 139.06,25.13 44.2,16.77 83.06,41 116.57,72.74 33.54,31.74 60.09,70.78 79.69,117.13 19.6,46.35 29.42,99.1 29.42,158.3 0,58.47 -9.62,110.71 -28.88,156.7 -19.24,45.99 -45.46,84.86 -78.6,116.6 -33.17,31.74 -71.84,55.97 -116.06,72.74 -44.22,16.74 -91.28,25.13 -141.19,25.13zm1114.54 -10.69l-77 0 -422.49 -534.84 0 534.84 -104.85 0 0 -723.09 84.52 0 415 521.98 0 -521.98 104.82 0 0 723.09zm369.03 -84.52c54.91,0 95.54,-11.05 121.93,-33.15 26.39,-22.12 39.57,-50.28 39.57,-84.52 0,-19.24 -3.9,-35.11 -11.75,-47.59 -7.85,-12.48 -18.9,-23.19 -33.17,-32.08 -14.25,-8.92 -31.38,-16.77 -51.34,-23.55 -19.94,-6.76 -42.06,-13.71 -66.32,-20.86 -23.53,-7.12 -47.76,-15.14 -72.72,-24.06 -24.96,-8.92 -47.61,-20.86 -67.92,-35.81 -20.33,-14.97 -37.07,-34.07 -50.28,-57.23 -13.18,-23.19 -19.8,-52.58 -19.8,-88.25 0,-34.24 6.61,-64.19 19.8,-89.85 13.21,-25.68 31.21,-46.72 54.01,-63.12 22.83,-16.4 50.11,-28.69 81.83,-36.9 31.74,-8.19 66.15,-12.28 103.22,-12.28 34.94,0 68.09,3.03 99.47,9.09 31.38,6.06 62.05,13.01 92,20.86l-7.49 97.33c-32.11,-9.98 -63.46,-17.83 -94.14,-23.53 -30.65,-5.72 -59.9,-8.55 -87.71,-8.55 -49.19,0 -85.75,8.55 -109.62,25.66 -23.89,17.11 -35.84,41.73 -35.84,73.81 0,17.83 3.39,32.61 10.15,44.39 6.78,11.78 16.57,21.93 29.42,30.48 12.84,8.55 28.71,16.04 47.59,22.46 18.9,6.42 40.49,13.21 64.72,20.33 29.25,8.55 57.23,17.64 83.98,27.26 26.73,9.64 50.25,21.93 70.58,36.9 20.33,15 36.54,33.87 48.66,56.7 12.14,22.83 18.2,51.71 18.2,86.65 0,37.07 -6.78,69.52 -20.33,97.33 -13.54,27.82 -32.44,51.15 -56.7,70.05 -24.23,18.9 -53.11,33.17 -86.62,42.79 -33.51,9.62 -69.88,14.44 -109.11,14.44 -39.93,0 -80.57,-4.46 -121.93,-13.38 -41.36,-8.92 -78.8,-21.2 -112.31,-36.9l12.84 -101.6c34.21,17.81 69.88,31.72 106.95,41.7 37.07,9.98 73.81,14.97 110.18,14.97z"/>
 </g>
</svg>
