<?xml version="1.0" encoding="UTF-8"?>
<!DOCTYPE svg PUBLIC "-//W3C//DTD SVG 1.1//EN" "http://www.w3.org/Graphics/SVG/1.1/DTD/svg11.dtd">
<!-- Creator: CorelDRAW 2021 (64-Bit) -->
<svg xmlns="http://www.w3.org/2000/svg" xml:space="preserve" width="33.8667mm" height="2.5236mm" version="1.1" style="shape-rendering:geometricPrecision; text-rendering:geometricPrecision; image-rendering:optimizeQuality; fill-rule:evenodd; clip-rule:evenodd"
viewBox="0 0 3386.66 252.36"
 xmlns:xlink="http://www.w3.org/1999/xlink"
 xmlns:xodm="http://www.corel.com/coreldraw/odm/2003">
 <defs>
  <style type="text/css">
   <![CDATA[
    .fil1 {fill:#3FAB3C;fill-rule:nonzero}
    .fil0 {fill:#0060AA;fill-rule:nonzero}
   ]]>
  </style>
 </defs>
 <g id="Layer_x0020_1">
  <metadata id="CorelCorpID_0Corel-Layer"/>
  <path class="fil0" d="M49.31 248.73c-17.16,0 -29.67,-4.29 -37.52,-12.87 -7.86,-8.58 -11.79,-21.58 -11.79,-38.98l0 -193.25 171.86 0 -12.33 44.6 -108.04 0 0 58.37 95.71 0 -2.17 44.6 -93.54 0 0 29.36c0,9.43 1.75,15.72 5.25,18.86 3.51,3.14 9.73,4.71 18.68,4.71l96.8 0 -12.33 44.6 -110.58 0zm371.62 0l-34.8 0 -128.35 -157.72 0 157.72 -48.22 0 0 -245.1 36.62 0 126.54 153.37 0 -153.37 48.21 0 0 245.1zm222.26 -245.1l59.09 0 -102.97 245.1 -42.78 0 -105.5 -245.1 58.73 0 67.44 168.23 3.26 0 62.73 -168.23zm142.48 245.1l-51.48 0 0 -245.1 51.48 0 0 245.1zm150.1 -128.71c13.78,0 24.29,-2.96 31.54,-8.89 7.25,-5.92 10.88,-15.17 10.88,-27.73 0,-13.06 -3.75,-22.18 -11.24,-27.38 -7.49,-5.19 -18.13,-7.79 -31.91,-7.79l-43.14 0 0 71.79 43.87 0zm71.06 128.71c-9.18,0 -16.43,-1.63 -21.75,-4.9 -5.32,-3.26 -10.64,-8.76 -15.95,-16.5l-37.35 -54.38c-2.41,-3.63 -4.65,-5.92 -6.7,-6.89 -2.06,-0.96 -5.14,-1.45 -9.25,-1.45l-23.93 0 0 84.12 -51.48 0 0 -245.1 98.61 0c14.26,0 27.01,1.45 38.25,4.35 11.24,2.9 20.79,7.44 28.65,13.6 7.85,6.16 13.83,14.26 17.94,24.29 4.11,10.03 6.16,22.06 6.16,36.08 0,7.25 -0.96,14.62 -2.9,22.11 -1.93,7.5 -4.95,14.63 -9.06,21.39 -4.11,6.77 -9.3,12.76 -15.59,17.95 -6.28,5.2 -13.78,9.25 -22.48,12.15l26.47 38.43c2.66,3.63 5.32,6.22 7.98,7.8 2.65,1.57 6.16,2.35 10.51,2.35l23.2 0 -12.32 44.6 -29.01 0zm308.54 -122.55c0,19.58 -3.26,37.16 -9.79,52.75 -6.52,15.59 -15.47,28.83 -26.83,39.7 -11.36,10.88 -24.65,19.22 -39.88,25.02 -15.23,5.8 -31.42,8.7 -48.58,8.7 -17.17,0 -33.36,-2.9 -48.59,-8.7 -15.22,-5.8 -28.52,-14.14 -39.88,-25.02 -11.36,-10.87 -20.36,-24.11 -27.01,-39.7 -6.64,-15.59 -9.97,-33.17 -9.97,-52.75 0,-19.58 3.33,-37.16 9.97,-52.75 6.65,-15.59 15.65,-28.83 27.01,-39.71 11.36,-10.87 24.66,-19.21 39.88,-25.01 15.23,-5.8 31.42,-8.7 48.59,-8.7 17.16,0 33.35,2.9 48.58,8.7 15.23,5.8 28.52,14.14 39.88,25.01 11.36,10.88 20.31,24.12 26.83,39.71 6.53,15.59 9.79,33.17 9.79,52.75zm-197.23 0c0,11.84 1.75,22.78 5.26,32.81 3.5,10.03 8.45,18.67 14.86,25.93 6.4,7.25 14.02,12.87 22.84,16.86 8.82,3.98 18.55,5.98 29.19,5.98 10.39,0 20.06,-2 29,-5.98 8.94,-3.99 16.56,-9.61 22.84,-16.86 6.29,-7.26 11.24,-15.9 14.87,-25.93 3.62,-10.03 5.44,-20.97 5.44,-32.81 0,-11.84 -1.82,-22.78 -5.44,-32.81 -3.63,-10.03 -8.58,-18.67 -14.87,-25.93 -6.28,-7.25 -13.9,-12.87 -22.84,-16.86 -8.94,-3.98 -18.61,-5.98 -29,-5.98 -10.64,0 -20.37,2 -29.19,5.98 -8.82,3.99 -16.44,9.61 -22.84,16.86 -6.41,7.26 -11.36,15.9 -14.86,25.93 -3.51,10.03 -5.26,20.97 -5.26,32.81z"/>
  <path class="fil1" d="M1506.44 220.09c18.61,0 32.39,-3.75 41.33,-11.24 8.94,-7.5 13.42,-17.05 13.42,-28.65 0,-6.52 -1.33,-11.9 -3.99,-16.13 -2.66,-4.23 -6.41,-7.86 -11.24,-10.88 -4.83,-3.02 -10.64,-5.68 -17.4,-7.98 -6.77,-2.29 -14.27,-4.65 -22.48,-7.07 -7.98,-2.41 -16.2,-5.13 -24.66,-8.15 -8.46,-3.02 -16.13,-7.07 -23.02,-12.15 -6.89,-5.07 -12.57,-11.54 -17.04,-19.4 -4.47,-7.85 -6.71,-17.82 -6.71,-29.91 0,-11.6 2.24,-21.75 6.71,-30.45 4.47,-8.71 10.58,-15.84 18.31,-21.39 7.73,-5.56 16.98,-9.73 27.74,-12.51 10.75,-2.78 22.41,-4.17 34.98,-4.17 11.85,0 23.08,1.02 33.72,3.08 10.64,2.05 21.03,4.41 31.18,7.07l-2.54 32.99c-10.87,-3.38 -21.51,-6.04 -31.9,-7.97 -10.4,-1.94 -20.31,-2.91 -29.73,-2.91 -16.68,0 -29.07,2.91 -37.17,8.71 -8.09,5.8 -12.14,14.14 -12.14,25.01 0,6.05 1.15,11.06 3.44,15.05 2.3,3.99 5.62,7.43 9.97,10.33 4.35,2.9 9.73,5.44 16.14,7.62 6.4,2.17 13.72,4.47 21.93,6.88 9.91,2.91 19.4,5.99 28.46,9.25 9.07,3.27 17.05,7.43 23.93,12.51 6.89,5.08 12.39,11.48 16.5,19.22 4.11,7.73 6.16,17.52 6.16,29.36 0,12.57 -2.29,23.57 -6.89,33 -4.59,9.42 -10.99,17.34 -19.21,23.74 -8.22,6.41 -18.01,11.24 -29.37,14.51 -11.36,3.26 -23.69,4.89 -36.98,4.89 -13.54,0 -27.31,-1.51 -41.33,-4.53 -14.02,-3.02 -26.71,-7.19 -38.07,-12.51l4.35 -34.44c11.6,6.04 23.69,10.75 36.26,14.14 12.56,3.38 25.01,5.08 37.34,5.08zm251.62 0.36c11.11,0 21.75,-2.12 31.9,-6.35 10.15,-4.23 19.16,-10.33 27.01,-18.31 7.86,-7.97 14.08,-17.76 18.67,-29.37 4.6,-11.6 6.89,-24.89 6.89,-39.88 0,-15.23 -2.23,-28.7 -6.7,-40.42 -4.48,-11.73 -10.58,-21.58 -18.31,-29.55 -7.74,-7.98 -16.74,-14.08 -27.01,-18.31 -10.28,-4.23 -21.09,-6.35 -32.45,-6.35 -11.36,0 -22.18,2.12 -32.45,6.35 -10.28,4.23 -19.28,10.33 -27.01,18.31 -7.74,7.97 -13.84,17.82 -18.31,29.55 -4.47,11.72 -6.71,25.19 -6.71,40.42 0,14.99 2.3,28.28 6.89,39.88 4.59,11.61 10.81,21.4 18.67,29.37 7.86,7.98 16.86,14.08 27.01,18.31 10.15,4.23 20.79,6.35 31.91,6.35zm0 31.9c-16.92,0 -32.88,-2.84 -47.86,-8.52 -14.99,-5.68 -28.1,-13.89 -39.34,-24.65 -11.24,-10.76 -20.12,-23.93 -26.65,-39.52 -6.52,-15.59 -9.79,-33.3 -9.79,-53.12 0,-20.06 3.33,-37.95 9.97,-53.66 6.65,-15.71 15.65,-28.94 27.02,-39.7 11.35,-10.76 24.53,-18.97 39.51,-24.65 14.99,-5.68 30.7,-8.52 47.14,-8.52 16.43,0 32.14,2.84 47.13,8.52 14.98,5.68 28.16,13.89 39.52,24.65 11.36,10.76 20.36,23.99 27.01,39.7 6.65,15.71 9.97,33.6 9.97,53.66 0,19.82 -3.26,37.53 -9.79,53.12 -6.53,15.59 -15.41,28.76 -26.65,39.52 -11.24,10.76 -24.35,18.97 -39.33,24.65 -14.99,5.68 -30.94,8.52 -47.86,8.52zm209.92 -61.27c0,9.19 1.75,15.65 5.26,19.4 3.5,3.74 9.73,5.62 18.67,5.62l96.07 0 -11.23 32.63 -98.26 0c-17.16,0 -29.49,-3.99 -36.98,-11.97 -7.49,-7.97 -11.24,-20.18 -11.24,-36.62l0 -196.51 37.71 0 0 187.45zm240.38 61.27c-31.67,0 -56.2,-7.73 -73.6,-23.2 -17.41,-15.47 -26.11,-39.28 -26.11,-71.43l0 -154.09 37.71 0 0 152.64c0,20.55 5.13,36.26 15.41,47.14 10.27,10.87 25.8,16.31 46.59,16.31 20.54,0 35.95,-5.44 46.22,-16.31 10.28,-10.88 15.41,-26.59 15.41,-47.14l0 -152.64 37.71 0 0 154.09c0,32.15 -8.7,55.96 -26.11,71.43 -17.4,15.47 -41.81,23.2 -73.23,23.2zm325.57 -216.09l-77.58 0 0 212.47 -37.71 0 0 -212.47 -82.66 0 0 -32.63 209.19 0 -11.24 32.63zm82.31 212.47l-37.71 0 0 -245.1 37.71 0 0 245.1zm173.66 -28.28c11.12,0 21.75,-2.12 31.91,-6.35 10.15,-4.23 19.15,-10.33 27.01,-18.31 7.85,-7.97 14.08,-17.76 18.67,-29.37 4.59,-11.6 6.89,-24.89 6.89,-39.88 0,-15.23 -2.24,-28.7 -6.71,-40.42 -4.47,-11.73 -10.57,-21.58 -18.31,-29.55 -7.73,-7.98 -16.74,-14.08 -27.01,-18.31 -10.27,-4.23 -21.09,-6.35 -32.45,-6.35 -11.36,0 -22.18,2.12 -32.45,6.35 -10.27,4.23 -19.28,10.33 -27.01,18.31 -7.73,7.97 -13.84,17.82 -18.31,29.55 -4.47,11.72 -6.71,25.19 -6.71,40.42 0,14.99 2.3,28.28 6.89,39.88 4.6,11.61 10.82,21.4 18.67,29.37 7.86,7.98 16.86,14.08 27.02,18.31 10.15,4.23 20.78,6.35 31.9,6.35zm0 31.9c-16.92,0 -32.87,-2.84 -47.86,-8.52 -14.98,-5.68 -28.1,-13.89 -39.34,-24.65 -11.24,-10.76 -20.12,-23.93 -26.64,-39.52 -6.53,-15.59 -9.79,-33.3 -9.79,-53.12 0,-20.06 3.32,-37.95 9.97,-53.66 6.65,-15.71 15.65,-28.94 27.01,-39.7 11.36,-10.76 24.53,-18.97 39.52,-24.65 14.98,-5.68 30.69,-8.52 47.13,-8.52 16.44,0 32.15,2.84 47.13,8.52 14.99,5.68 28.16,13.89 39.52,24.65 11.36,10.76 20.37,23.99 27.01,39.7 6.65,15.71 9.97,33.6 9.97,53.66 0,19.82 -3.26,37.53 -9.79,53.12 -6.52,15.59 -15.4,28.76 -26.64,39.52 -11.24,10.76 -24.36,18.97 -39.34,24.65 -14.99,5.68 -30.94,8.52 -47.86,8.52zm377.79 -3.62l-26.11 0 -143.21 -181.29 0 181.29 -35.53 0 0 -245.1 28.64 0 140.68 176.93 0 -176.93 35.53 0 0 245.1zm125.08 -28.64c18.61,0 32.39,-3.75 41.33,-11.24 8.95,-7.5 13.42,-17.05 13.42,-28.65 0,-6.52 -1.33,-11.9 -3.99,-16.13 -2.66,-4.23 -6.41,-7.86 -11.24,-10.88 -4.83,-3.02 -10.64,-5.68 -17.4,-7.98 -6.77,-2.29 -14.27,-4.65 -22.48,-7.07 -7.98,-2.41 -16.2,-5.13 -24.66,-8.15 -8.46,-3.02 -16.13,-7.07 -23.02,-12.15 -6.89,-5.07 -12.57,-11.54 -17.04,-19.4 -4.47,-7.85 -6.71,-17.82 -6.71,-29.91 0,-11.6 2.24,-21.75 6.71,-30.45 4.47,-8.71 10.58,-15.84 18.31,-21.39 7.73,-5.56 16.98,-9.73 27.74,-12.51 10.75,-2.78 22.41,-4.17 34.98,-4.17 11.85,0 23.09,1.02 33.72,3.08 10.64,2.05 21.03,4.41 31.18,7.07l-2.54 32.99c-10.87,-3.38 -21.51,-6.04 -31.9,-7.97 -10.4,-1.94 -20.31,-2.91 -29.73,-2.91 -16.68,0 -29.07,2.91 -37.16,8.71 -8.1,5.8 -12.15,14.14 -12.15,25.01 0,6.05 1.15,11.06 3.44,15.05 2.3,3.99 5.62,7.43 9.97,10.33 4.36,2.9 9.73,5.44 16.14,7.62 6.4,2.17 13.72,4.47 21.93,6.88 9.91,2.91 19.4,5.99 28.47,9.25 9.06,3.27 17.04,7.43 23.92,12.51 6.89,5.08 12.39,11.48 16.5,19.22 4.11,7.73 6.16,17.52 6.16,29.36 0,12.57 -2.29,23.57 -6.89,33 -4.59,9.42 -10.99,17.34 -19.21,23.74 -8.22,6.41 -18.01,11.24 -29.37,14.51 -11.36,3.26 -23.68,4.89 -36.98,4.89 -13.54,0 -27.31,-1.51 -41.33,-4.53 -14.02,-3.02 -26.71,-7.19 -38.07,-12.51l4.35 -34.44c11.6,6.04 23.69,10.75 36.26,14.14 12.57,3.38 25.01,5.08 37.34,5.08z"/>
 </g>
</svg>
