<?xml version="1.0" encoding="UTF-8"?>
<!DOCTYPE svg PUBLIC "-//W3C//DTD SVG 1.1//EN" "http://www.w3.org/Graphics/SVG/1.1/DTD/svg11.dtd">
<!-- Creator: CorelDRAW 2021 (64-Bit) -->
<svg xmlns="http://www.w3.org/2000/svg" xml:space="preserve" width="33.8668mm" height="8.8972mm" version="1.1" style="shape-rendering:geometricPrecision; text-rendering:geometricPrecision; image-rendering:optimizeQuality; fill-rule:evenodd; clip-rule:evenodd"
viewBox="0 0 2984.84 784.15"
 xmlns:xlink="http://www.w3.org/1999/xlink"
 xmlns:xodm="http://www.corel.com/coreldraw/odm/2003">
 <defs>
  <style type="text/css">
   <![CDATA[
    .fil40 {fill:#2B2A29;fill-rule:nonzero}
    .fil1 {fill:#43AC3C;fill-rule:nonzero}
    .fil35 {fill:url(#id0)}
    .fil6 {fill:url(#id1)}
    .fil9 {fill:url(#id2)}
    .fil28 {fill:url(#id3)}
    .fil21 {fill:url(#id4)}
    .fil10 {fill:url(#id5)}
    .fil3 {fill:url(#id6)}
    .fil15 {fill:url(#id7)}
    .fil39 {fill:url(#id8)}
    .fil27 {fill:url(#id9)}
    .fil12 {fill:url(#id10)}
    .fil20 {fill:url(#id11)}
    .fil32 {fill:url(#id12)}
    .fil5 {fill:url(#id13)}
    .fil16 {fill:url(#id14)}
    .fil38 {fill:url(#id15)}
    .fil7 {fill:url(#id16)}
    .fil11 {fill:url(#id17)}
    .fil30 {fill:url(#id18)}
    .fil25 {fill:url(#id19)}
    .fil19 {fill:url(#id20)}
    .fil29 {fill:url(#id21)}
    .fil0 {fill:url(#id22)}
    .fil23 {fill:url(#id23)}
    .fil13 {fill:url(#id24)}
    .fil22 {fill:url(#id25)}
    .fil18 {fill:url(#id26)}
    .fil17 {fill:url(#id27)}
    .fil14 {fill:url(#id28)}
    .fil36 {fill:url(#id29)}
    .fil37 {fill:url(#id30)}
    .fil26 {fill:url(#id31)}
    .fil4 {fill:url(#id32)}
    .fil24 {fill:url(#id33)}
    .fil8 {fill:url(#id34)}
    .fil2 {fill:url(#id35)}
    .fil31 {fill:url(#id36)}
    .fil33 {fill:url(#id37)}
    .fil34 {fill:url(#id38)}
   ]]>
  </style>
  <linearGradient id="id0" gradientUnits="userSpaceOnUse" x1="1729.93" y1="443.63" x2="2011.74" y2="443.63">
   <stop offset="0" style="stop-opacity:1; stop-color:#00A0E3"/>
   <stop offset="1" style="stop-opacity:1; stop-color:#2873B9"/>
  </linearGradient>
  <linearGradient id="id1" gradientUnits="userSpaceOnUse" x1="0.09" y1="352.18" x2="129.72" y2="352.18">
   <stop offset="0" style="stop-opacity:1; stop-color:#2873B9"/>
   <stop offset="1" style="stop-opacity:1; stop-color:#00A0E3"/>
  </linearGradient>
  <linearGradient id="id2" gradientUnits="userSpaceOnUse" xlink:href="#id1" x1="225.07" y1="65.69" x2="606.73" y2="65.69">
  </linearGradient>
  <linearGradient id="id3" gradientUnits="userSpaceOnUse" xlink:href="#id0" x1="187.94" y1="429.6" x2="448.22" y2="429.6">
  </linearGradient>
  <linearGradient id="id4" gradientUnits="userSpaceOnUse" xlink:href="#id1" x1="449.87" y1="513.63" x2="325.9" y2="677.63">
  </linearGradient>
  <linearGradient id="id5" gradientUnits="userSpaceOnUse" xlink:href="#id1" x1="0.09" y1="112.5" x2="361.11" y2="112.5">
  </linearGradient>
  <linearGradient id="id6" gradientUnits="objectBoundingBox" xlink:href="#id0" x1="0%" y1="50.0025%" x2="99.9993%" y2="50.0025%">
  </linearGradient>
  <linearGradient id="id7" gradientUnits="userSpaceOnUse" x1="26.19" y1="342.76" x2="279.52" y2="218.36">
   <stop offset="0" style="stop-opacity:1; stop-color:#14693C"/>
   <stop offset="1" style="stop-opacity:1; stop-color:#3FAB3C"/>
  </linearGradient>
  <linearGradient id="id8" gradientUnits="userSpaceOnUse" xlink:href="#id7" x1="2919.88" y1="317.02" x2="2984.84" y2="317.02">
  </linearGradient>
  <linearGradient id="id9" gradientUnits="userSpaceOnUse" xlink:href="#id0" x1="242.62" y1="299.87" x2="99.31" y2="489.43">
  </linearGradient>
  <linearGradient id="id10" gradientUnits="userSpaceOnUse" xlink:href="#id7" x1="595.55" y1="297.3" x2="705.01" y2="297.3">
  </linearGradient>
  <linearGradient id="id11" gradientUnits="userSpaceOnUse" xlink:href="#id0" x1="161.52" y1="530.44" x2="316.52" y2="530.44">
  </linearGradient>
  <linearGradient id="id12" gradientUnits="userSpaceOnUse" xlink:href="#id0" x1="1211.01" y1="374.13" x2="1468.31" y2="374.13">
  </linearGradient>
  <linearGradient id="id13" gradientUnits="objectBoundingBox" xlink:href="#id0" x1="0.00170945%" y1="50.0012%" x2="100.003%" y2="50.0012%">
  </linearGradient>
  <linearGradient id="id14" gradientUnits="userSpaceOnUse" x1="56.89" y1="472.01" x2="166.55" y2="472.01">
   <stop offset="0" style="stop-opacity:1; stop-color:#3FAB3C"/>
   <stop offset="1" style="stop-opacity:1; stop-color:#14693C"/>
  </linearGradient>
  <linearGradient id="id15" gradientUnits="userSpaceOnUse" xlink:href="#id7" x1="2568.13" y1="374.36" x2="2859.89" y2="374.36">
  </linearGradient>
  <linearGradient id="id16" gradientUnits="userSpaceOnUse" xlink:href="#id0" x1="637.91" y1="416.42" x2="767.77" y2="416.42">
  </linearGradient>
  <linearGradient id="id17" gradientUnits="userSpaceOnUse" xlink:href="#id0" x1="160.63" y1="703.24" x2="542.71" y2="703.24">
  </linearGradient>
  <linearGradient id="id18" gradientUnits="userSpaceOnUse" xlink:href="#id0" x1="858.97" y1="311.91" x2="1149.21" y2="311.91">
  </linearGradient>
  <linearGradient id="id19" gradientUnits="userSpaceOnUse" xlink:href="#id0" x1="434.71" y1="95.8" x2="311.41" y2="258.92">
  </linearGradient>
  <linearGradient id="id20" gradientUnits="userSpaceOnUse" xlink:href="#id14" x1="482.3" y1="550.65" x2="736.08" y2="426.01">
  </linearGradient>
  <linearGradient id="id21" gradientUnits="userSpaceOnUse" xlink:href="#id7" x1="313.13" y1="342.93" x2="573.99" y2="342.93">
  </linearGradient>
  <linearGradient id="id22" gradientUnits="userSpaceOnUse" x1="-19.93" y1="643.92" x2="764.2" y2="73.59">
   <stop offset="0" style="stop-opacity:1; stop-color:#E8E9EA"/>
   <stop offset="1" style="stop-opacity:1; stop-color:#F3F3F4"/>
  </linearGradient>
  <linearGradient id="id23" gradientUnits="userSpaceOnUse" xlink:href="#id1" x1="661.44" y1="284.53" x2="518.52" y2="473.61">
  </linearGradient>
  <linearGradient id="id24" gradientUnits="userSpaceOnUse" xlink:href="#id7" x1="345.98" y1="225.57" x2="624.29" y2="88.91">
  </linearGradient>
  <linearGradient id="id25" gradientUnits="userSpaceOnUse" xlink:href="#id0" x1="421.97" y1="528.34" x2="626.29" y2="528.34">
  </linearGradient>
  <linearGradient id="id26" gradientUnits="userSpaceOnUse" xlink:href="#id14" x1="311.93" y1="653.97" x2="624.63" y2="653.97">
  </linearGradient>
  <linearGradient id="id27" gradientUnits="userSpaceOnUse" xlink:href="#id14" x1="138.05" y1="680.66" x2="415.5" y2="544.39">
  </linearGradient>
  <linearGradient id="id28" gradientUnits="userSpaceOnUse" xlink:href="#id7" x1="137.32" y1="115.33" x2="450.03" y2="115.33">
  </linearGradient>
  <linearGradient id="id29" gradientUnits="userSpaceOnUse" xlink:href="#id7" x1="2078.22" y1="230.9" x2="2149.75" y2="230.9">
  </linearGradient>
  <linearGradient id="id30" gradientUnits="userSpaceOnUse" xlink:href="#id0" x1="2078.22" y1="400.46" x2="2149.75" y2="400.46">
  </linearGradient>
  <linearGradient id="id31" gradientUnits="userSpaceOnUse" xlink:href="#id1" x1="134.78" y1="245.07" x2="338.86" y2="245.07">
  </linearGradient>
  <linearGradient id="id32" gradientUnits="objectBoundingBox" xlink:href="#id0" x1="0.00352183%" y1="50.0001%" x2="100.002%" y2="50.0001%">
  </linearGradient>
  <linearGradient id="id33" gradientUnits="userSpaceOnUse" xlink:href="#id1" x1="444.49" y1="242.94" x2="599.67" y2="242.94">
  </linearGradient>
  <linearGradient id="id34" gradientUnits="userSpaceOnUse" xlink:href="#id1" x1="542.65" y1="181.85" x2="767.66" y2="181.85">
  </linearGradient>
  <linearGradient id="id35" gradientUnits="objectBoundingBox" xlink:href="#id0" x1="0%" y1="50.0021%" x2="100.001%" y2="50.0021%">
  </linearGradient>
  <linearGradient id="id36" gradientUnits="userSpaceOnUse" xlink:href="#id7" x1="2211.67" y1="311.5" x2="2501.93" y2="311.5">
  </linearGradient>
  <linearGradient id="id37" gradientUnits="userSpaceOnUse" xlink:href="#id0" x1="1543.58" y1="373.59" x2="1709.68" y2="373.59">
  </linearGradient>
  <linearGradient id="id38" gradientUnits="userSpaceOnUse" xlink:href="#id7" x1="1543.58" y1="266.99" x2="1590.34" y2="266.99">
  </linearGradient>
 </defs>
 <g id="Layer_x0020_1">
  <metadata id="CorelCorpID_0Corel-Layer"/>
  <g id="_1794267830176">
   <polygon class="fil0" points="455.63,705.8 185.77,663.17 25.08,442.22 67.71,172.37 288.64,11.7 558.49,54.31 719.18,275.24 676.57,545.09 "/>
   <polygon class="fil1" points="767.77,542.97 637.91,607.62 767.77,225.22 "/>
   <polygon class="fil2" points="767.66,225.08 720.74,363.63 542.65,0.04 "/>
   <polygon class="fil1" points="543.14,0.51 606.72,130.87 225.06,0.51 "/>
   <polygon class="fil3" points="224.91,0 361.12,47.14 0.09,225 "/>
   <polygon class="fil1" points="0.09,225.14 129.72,161.14 0.2,543.19 "/>
   <polygon class="fil4" points="0.01,543.2 46.44,406.29 224.99,768.07 "/>
   <polygon class="fil1" points="224.62,768.07 160.63,638.41 542.7,767.96 "/>
   <polygon class="fil5" points="543.95,768.07 406.61,721.3 768.34,542.72 "/>
   <polygon class="fil1" points="767.77,542.97 637.91,607.62 767.77,225.22 "/>
   <polygon class="fil2" points="767.66,225.08 720.74,363.63 542.65,0.04 "/>
   <polygon class="fil1" points="543.14,0.51 606.72,130.87 225.06,0.51 "/>
   <polygon class="fil3" points="224.91,0 361.12,47.14 0.09,225 "/>
   <polygon class="fil1" points="0.09,225.14 129.72,161.14 0.2,543.19 "/>
   <polygon class="fil4" points="0.01,543.2 46.44,406.29 224.99,768.07 "/>
   <polygon class="fil1" points="224.62,768.07 160.63,638.41 542.7,767.96 "/>
   <polygon class="fil5" points="543.95,768.07 406.61,721.3 768.34,542.72 "/>
   <polygon class="fil6" points="0.09,225.14 129.72,161.14 0.2,543.2 "/>
   <polygon class="fil7" points="767.77,542.98 767.77,225.23 637.9,607.62 "/>
   <polygon class="fil8" points="767.66,225.08 720.74,363.63 542.65,0.04 "/>
   <polygon class="fil9" points="543.14,0.5 225.06,0.5 606.72,130.86 "/>
   <polygon class="fil10" points="224.91,0 361.12,47.14 0.09,225 "/>
   <polygon class="fil4" points="0.01,543.2 46.44,406.29 224.99,768.07 "/>
   <polygon class="fil11" points="224.62,768.07 160.63,638.41 542.7,767.96 "/>
   <polygon class="fil5" points="543.95,768.07 406.61,721.3 768.34,542.72 "/>
   <polygon class="fil12" points="705,363.73 636.17,453.82 595.54,140.8 "/>
   <polygon class="fil13" points="595.38,140.73 610.27,254.14 360,60.35 "/>
   <polygon class="fil14" points="360.51,60.54 450.02,130.08 137.31,170.14 "/>
   <polygon class="fil15" points="137.07,169.83 248.87,155.96 56.84,405.15 "/>
   <polygon class="fil16" points="56.89,405.23 125.79,315.65 166.54,628.36 "/>
   <polygon class="fil17" points="166.42,628.44 151.8,516.36 401.75,708.68 "/>
   <polygon class="fil18" points="401.47,708.81 311.92,639.9 624.64,599.13 "/>
   <polygon class="fil19" points="625.52,598.78 513.05,613.28 705.33,363.38 "/>
   <polygon class="fil20" points="161.52,515.43 177.85,428.26 316.52,632.62 "/>
   <polygon class="fil21" points="316.64,632.62 266.33,558.63 509.41,605.86 "/>
   <polygon class="fil22" points="509.02,605.93 421.97,588.85 626.29,450.75 "/>
   <polygon class="fil23" points="626.6,450.87 553.35,499.94 599.77,258.2 "/>
   <polygon class="fil24" points="599.69,258.13 583.1,344.99 444.47,140.89 "/>
   <polygon class="fil25" points="444.54,140.8 494.22,213.94 251.88,167.64 "/>
   <polygon class="fil26" points="252,167.46 338.86,184.03 134.77,322.65 "/>
   <polygon class="fil27" points="134.24,323.24 207.7,273.46 161.41,515.83 "/>
   <path class="fil28" d="M435.72 387.19l-0.26 0c-2.6,0.01 -4.57,0.28 -4.57,0.28l0 0c-31.62,34.87 -57.91,38.66 -57.91,38.66l0 0c-14.22,2.64 -36.2,-3.28 -36.2,-3.28l0 0c-19.05,0.23 -8.03,-10.87 -8.03,-10.87l0 0c26.27,9.45 44.97,0.97 52.02,-7.48l0 0c4.94,-5.93 4.17,-11.85 -3.69,-11.65l0 0c-19.1,0.48 -111.01,-1.92 -111.01,-1.92l0 0 -78.13 34.34c0,0 28.26,47.97 30.4,46.73l0 0c2.15,-1.27 51.3,-20.19 51.3,-20.19l0 0c36.08,0.31 97.39,4.39 97.39,4.39l0 0c29.13,-7.81 53.94,-30.31 53.94,-30.31l0 0c43.04,-34.93 24.7,-38.69 14.76,-38.69z"/>
   <path class="fil29" d="M544.51 302.65c-2.16,1.23 -51.69,19.17 -51.69,19.17l0 0c-36.09,-0.99 -97.28,-6.28 -97.28,-6.28l0 0c-29.28,7.23 -54.5,29.26 -54.5,29.26l0 0c-55.77,43.48 -10.7,38.22 -10.7,38.22l0 0c32.29,-34.28 58.64,-37.54 58.64,-37.54l0 0c14.3,-2.37 36.13,3.98 36.13,3.98l0 0c19.06,0.12 7.84,11.04 7.84,11.04l0 0c-26.42,-10.09 -45.44,-1.64 -52.45,6.79l0 0c-4.74,5.72 -3.97,11.44 3.75,11.4l0 0c19.13,-0.11 110.95,4.05 110.95,4.05l0 0 78.8 -32.78c0,0 -26.66,-47.35 -29.38,-47.35 -0.04,0 -0.07,0 -0.1,0.03l0 0z"/>
  </g>
  <g id="_1794267792112">
   <path class="fil30" d="M926.46 134.5c0,0 -40.33,27.87 -46.43,91.73l0 0c-6.12,63.84 58.42,87.62 58.42,87.62l0 0 79.47 33.28c0,0 29.22,7.47 41.44,24.79l0 0c12.22,17.33 7.46,38.38 -2.71,48.58l0 0c-10.21,10.17 -44.83,50.95 -135.87,-8.84l0 0 -7.47 -4.75 -54.34 51.63c0,0 45.68,55.52 130.42,61.11 0,0 74.04,-2.71 108,-31.91l0 0c0,0 81.52,-66.58 40.08,-146.73l0 0c0,0 -26.49,-46.87 -112.08,-70.65l0 0c0,0 -82.19,-14.94 -65.22,-65.89l0 0c0,0 11.48,-40.4 69.3,-31.24l0 0c0,0 26.48,3.82 63.85,27.17l0 0 44.15 -48.24c0,0 -49.97,-48.02 -119.11,-48.03l0 0c-28.15,0 -59.47,7.96 -91.91,30.36l0 0z"/>
   <path class="fil31" d="M2278.14 133.49c0,0 -39.29,28.88 -45.41,92.74l0 0c-6.1,63.84 58.43,87.62 58.43,87.62l0 0 79.46 33.28c0,0 29.21,7.47 41.46,24.79l0 0c12.21,17.33 7.44,38.38 -2.74,48.58l0 0c-10.19,10.17 -44.84,50.95 -135.84,-8.84l0 0 -7.48 -4.75 -54.34 51.63c0,0 45.7,55.52 130.41,61.11 0,0 74.04,-2.71 108.01,-31.91l0 0c0,0 81.52,-66.58 40.1,-146.73l0 0c0,0 -26.52,-46.87 -112.11,-70.65l0 0c0,0 -88.75,-12.44 -65.2,-65.89l0 0c0,0 11.1,-36.35 69.28,-31.24l0 0c0,0 26.48,3.82 63.84,27.17l0 0 44.18 -48.24c0,0 -50.82,-48.84 -120.59,-48.84l0 0c-28.1,-0.02 -59.28,7.91 -91.47,30.15l0 0z"/>
   <path class="fil32" d="M1468.31 228.52l-77.44 0 -0.76 194.41c0,0 2.71,32.62 -52.44,32.62l0 0c-55.15,0 -55.9,-40.77 -55.9,-40.77l0 0 -0.52 -186.25 -68.77 0.12c0,0 -3.31,149.47 0,225.86l0 0c3.32,76.72 105.96,64.56 105.96,64.56l0 0c41.78,4.75 76.07,-31.61 76.07,-31.61l0 0 0.42 32.21 72.85 0 0.53 -291.14z"/>
   <path class="fil33" d="M1543.59 334.74l0 184.92 79.78 0.01 0.04 -151.7c-3.39,-64.52 86.28,-68.39 86.28,-68.39l-0.48 -71.06c-8.07,-0.71 -15.76,-1.02 -23.06,-1.02l0 0c-131.75,-0.01 -142.56,107.24 -142.56,107.24l0 0z"/>
   <path class="fil34" d="M1543.59 228.52l0 76.92c0,0 12.82,-42.28 46.76,-57.33l-0.4 -19.59 -46.36 0z"/>
   <path class="fil35" d="M1742.74 335.5c0,40.03 25.34,74.91 62.86,93.27l0 0c0.4,0.19 0.8,0.35 1.18,0.54l0 0c-7.39,5.45 -46.46,36.6 -2.9,56.99l0 0c0,0 -146.98,72.59 -26.49,153.86l0 0c0,0 60.13,41.78 179.34,0l0 0c0,0 117.93,-64.96 0,-144.68l0 0c0,0 -58.86,-17.57 -87.54,-15.29l0 0c0,0 -45.53,-14.77 0,-30.57l0 0c7.63,-2.66 11.46,-4.49 12.44,-5.82l0 0c0.17,-0.23 0.19,-0.45 0.26,-0.63l0 0c0.27,-0.76 0.39,-1.25 0.45,-1.64l0 0c60.39,-6.94 107,-51.74 107,-106.03l0 0c0,-17.17 -4.69,-33.37 -12.97,-47.76l0 0 35.38 -0.72 0 -53.41 -108.04 0c-11.87,-3.31 -24.52,-5.09 -37.65,-5.09l0 0c-68.09,0 -123.3,47.9 -123.3,106.99zm160.96 -101.89c0,0 0,0 0,0l0 0c0,0 0,0 0,0zm-90.65 101.89c0,-29.26 23.73,-52.98 52.99,-52.98l0 0c29.25,0 52.98,23.72 52.98,52.98l0 0c0,29.26 -23.73,52.97 -52.98,52.97l0 0c-29.25,0 -52.99,-23.71 -52.99,-52.97zm-11.24 231.29c0,-20.25 30.17,-36.68 67.37,-36.68l0 0c37.2,0 67.36,16.43 67.36,36.68l0 0c0,20.26 -30.16,36.68 -67.36,36.68l0 0c-37.2,0 -67.37,-16.42 -67.37,-36.68l0 0z"/>
   <polygon class="fil36" points="2149.75,206.38 2078.22,206.38 2078.22,255.41 2149.75,255.41 "/>
   <polygon class="fil37" points="2078.22,519.66 2149.22,519.66 2149.75,281.25 2078.22,281.25 "/>
   <path class="fil38" d="M2568.13 374.35c0,80.57 65.3,145.89 145.89,145.89 80.56,0 145.87,-65.32 145.87,-145.89l0 0c0,-80.56 -65.31,-145.87 -145.87,-145.87l0 0c-80.59,0 -145.89,65.32 -145.89,145.87zm79.48 0c0,-36.66 29.74,-66.38 66.41,-66.38l0 0c36.66,0 66.39,29.72 66.39,66.38l0 0c0,36.68 -29.73,66.41 -66.39,66.41l0 0c-36.67,0 -66.41,-29.73 -66.41,-66.41l0 0z"/>
   <polygon class="fil39" points="2984.84,118.22 2919.88,118.22 2919.88,515.83 2984.84,515.83 "/>
  </g>
  <path class="fil40" d="M1106.14 732.58c0,2.73 0.28,5.12 0.84,7.11 0.55,2.01 1.32,3.65 2.27,4.94 0.96,1.3 2.09,2.27 3.36,2.9 1.26,0.62 2.64,0.94 4.07,0.94 1.23,0 2.42,-0.19 3.54,-0.56 1.14,-0.36 2.17,-0.83 3.14,-1.38 0.97,-0.55 1.84,-1.15 2.63,-1.79 0.78,-0.64 1.45,-1.25 2,-1.81l0 -24.25c-0.38,-0.4 -0.92,-0.79 -1.57,-1.2 -0.65,-0.42 -1.37,-0.78 -2.17,-1.13 -0.8,-0.32 -1.67,-0.6 -2.57,-0.82 -0.92,-0.22 -1.86,-0.33 -2.81,-0.33 -1.58,0 -3.16,0.28 -4.69,0.86 -1.54,0.56 -2.91,1.52 -4.1,2.87 -1.18,1.37 -2.13,3.14 -2.86,5.37 -0.71,2.2 -1.08,4.98 -1.08,8.28zm31.27 23.73l-9.03 0 -0.28 -4.24c-0.76,0.71 -1.62,1.37 -2.59,2.01 -0.99,0.62 -2.04,1.18 -3.19,1.67 -1.14,0.5 -2.34,0.88 -3.6,1.18 -1.25,0.3 -2.54,0.47 -3.84,0.47 -2.64,0 -5.08,-0.55 -7.3,-1.63 -2.22,-1.07 -4.14,-2.65 -5.76,-4.76 -1.64,-2.09 -2.91,-4.7 -3.83,-7.79 -0.92,-3.09 -1.37,-6.7 -1.37,-10.77 0,-3.86 0.48,-7.35 1.46,-10.49 0.98,-3.13 2.38,-5.83 4.18,-8.06 1.82,-2.25 4.03,-3.97 6.62,-5.18 2.59,-1.23 5.49,-1.83 8.69,-1.83 2.02,0 3.9,0.29 5.68,0.85 1.75,0.59 3.34,1.3 4.74,2.21l0 -29.81 9.42 0 0 76.17zm34.58 -40.62c-3.14,0 -5.69,0.94 -7.67,2.86 -1.98,1.9 -3.29,4.7 -3.94,8.36l21.25 0c-0.17,-3.66 -1.07,-6.45 -2.74,-8.36 -1.67,-1.91 -3.97,-2.86 -6.9,-2.86zm-20.93 16.16c0,-3.72 0.5,-7.14 1.52,-10.21 1,-3.08 2.44,-5.71 4.27,-7.9 1.86,-2.17 4.06,-3.86 6.64,-5.07 2.59,-1.18 5.45,-1.79 8.62,-1.79 3.09,0 5.82,0.55 8.15,1.61 2.32,1.08 4.29,2.64 5.9,4.62 1.6,1.99 2.79,4.44 3.59,7.35 0.8,2.9 1.21,6.17 1.21,9.81l0 4.82 -30.77 0c0.16,2.01 0.6,3.85 1.3,5.56 0.7,1.73 1.63,3.2 2.83,4.4 1.19,1.23 2.59,2.17 4.21,2.87 1.6,0.69 3.39,1.02 5.35,1.02 1.15,0 2.35,-0.11 3.66,-0.38 1.29,-0.26 2.61,-0.63 3.96,-1.13 1.36,-0.48 2.71,-1.08 4.05,-1.81 1.36,-0.7 2.66,-1.52 3.9,-2.47l0 8.92c-2.47,1.68 -5.09,3 -7.85,3.91 -2.75,0.93 -5.9,1.39 -9.4,1.39 -3.28,0 -6.2,-0.58 -8.8,-1.73 -2.6,-1.17 -4.82,-2.86 -6.65,-5.04 -1.83,-2.19 -3.24,-4.88 -4.21,-8.04 -0.99,-3.16 -1.47,-6.73 -1.47,-10.74zm63.23 24.47l-9.42 0 0 -76.17 9.42 0 0 76.17zm26.75 -62.12c0,0.94 -0.17,1.79 -0.48,2.53 -0.33,0.75 -0.77,1.39 -1.3,1.93 -0.53,0.52 -1.15,0.93 -1.87,1.21 -0.71,0.26 -1.47,0.4 -2.26,0.4 -1.62,0 -3.01,-0.52 -4.12,-1.56 -1.12,-1.03 -1.69,-2.54 -1.69,-4.5 0,-1.87 0.57,-3.33 1.69,-4.4 1.12,-1.07 2.5,-1.59 4.12,-1.59 0.78,0 1.54,0.14 2.26,0.41 0.71,0.27 1.34,0.68 1.87,1.2 0.54,0.55 0.97,1.16 1.3,1.89 0.32,0.72 0.48,1.56 0.48,2.49zm-1.3 62.12l-9.42 0 0 -48.33 9.42 0 0 48.33zm52.03 -48.33l-17.91 48.33 -7.35 0 -16.33 -48.33 9.64 0 9 29.15c0.37,1.08 0.69,2.23 0.99,3.41 0.28,1.17 0.56,2.37 0.82,3.58 0.17,-0.63 0.35,-1.29 0.52,-1.98 0.18,-0.71 0.36,-1.39 0.56,-2.04 0.2,-0.66 0.37,-1.24 0.54,-1.76 0.16,-0.55 0.3,-0.99 0.4,-1.33 0.72,-2.28 1.47,-4.66 2.27,-7.13 0.8,-2.47 1.62,-4.96 2.44,-7.46 0.83,-2.49 1.67,-4.95 2.5,-7.41 0.82,-2.45 1.64,-4.79 2.42,-7.02l9.48 0zm27.13 7.71c-3.15,0 -5.7,0.94 -7.67,2.86 -1.99,1.9 -3.3,4.7 -3.95,8.36l21.25 0c-0.17,-3.66 -1.07,-6.45 -2.74,-8.36 -1.67,-1.91 -3.97,-2.86 -6.89,-2.86zm-20.93 16.16c0,-3.72 0.5,-7.14 1.52,-10.21 1,-3.08 2.44,-5.71 4.27,-7.9 1.86,-2.17 4.06,-3.86 6.64,-5.07 2.58,-1.18 5.45,-1.79 8.62,-1.79 3.08,0 5.81,0.55 8.15,1.61 2.32,1.08 4.29,2.64 5.9,4.62 1.6,1.99 2.79,4.44 3.59,7.35 0.8,2.9 1.21,6.17 1.21,9.81l0 4.82 -30.78 0c0.17,2.01 0.61,3.85 1.3,5.56 0.71,1.73 1.64,3.2 2.85,4.4 1.18,1.23 2.58,2.17 4.2,2.87 1.6,0.69 3.39,1.02 5.35,1.02 1.15,0 2.35,-0.11 3.66,-0.38 1.29,-0.26 2.6,-0.63 3.96,-1.13 1.35,-0.48 2.71,-1.08 4.06,-1.81 1.35,-0.7 2.65,-1.52 3.89,-2.47l0 8.92c-2.47,1.68 -5.09,3 -7.85,3.91 -2.76,0.93 -5.9,1.39 -9.4,1.39 -3.27,0 -6.2,-0.58 -8.8,-1.73 -2.6,-1.17 -4.82,-2.86 -6.65,-5.04 -1.83,-2.19 -3.24,-4.88 -4.21,-8.04 -0.98,-3.16 -1.46,-6.73 -1.46,-10.74zm70.61 -24.96c1.1,0 2.17,0.15 3.19,0.45 1.04,0.3 2.07,0.68 3.1,1.15l0 9.17c-1.09,-0.32 -2.28,-0.54 -3.52,-0.68 -1.23,-0.14 -2.41,-0.2 -3.51,-0.2 -1.23,0 -2.29,0.32 -3.16,0.96 -0.86,0.67 -1.55,1.51 -2.07,2.59 -0.51,1.09 -0.9,2.34 -1.14,3.78 -0.21,1.43 -0.33,2.93 -0.33,4.5l0 27.7 -9.43 0 0 -32.08c0,-1.45 -0.04,-3 -0.14,-4.6 -0.11,-1.61 -0.22,-3.16 -0.37,-4.64 -0.13,-1.51 -0.3,-2.86 -0.48,-4.1 -0.17,-1.23 -0.33,-2.21 -0.5,-2.91l7.93 0c0.17,0.36 0.33,0.82 0.5,1.45 0.15,0.6 0.32,1.27 0.45,1.98 0.15,0.72 0.28,1.51 0.42,2.34 0.13,0.82 0.23,1.62 0.3,2.41 0.48,-0.98 1,-2.01 1.55,-3.09 0.57,-1.06 1.21,-2.06 1.92,-2.99 0.71,-0.93 1.51,-1.69 2.35,-2.27 0.87,-0.6 1.84,-0.91 2.93,-0.91zm28.29 -12.69c0,0.94 -0.16,1.79 -0.48,2.53 -0.33,0.75 -0.78,1.39 -1.3,1.93 -0.54,0.52 -1.15,0.93 -1.88,1.21 -0.71,0.26 -1.47,0.4 -2.26,0.4 -1.61,0 -3.01,-0.52 -4.12,-1.56 -1.12,-1.03 -1.68,-2.54 -1.68,-4.5 0,-1.87 0.56,-3.33 1.68,-4.4 1.12,-1.07 2.51,-1.59 4.12,-1.59 0.78,0 1.54,0.14 2.26,0.41 0.72,0.27 1.34,0.68 1.88,1.2 0.53,0.55 0.97,1.16 1.3,1.89 0.32,0.72 0.48,1.56 0.48,2.49zm-1.3 62.12l-9.43 0 0 -48.33 9.43 0 0 48.33zm52.38 0l-9.41 0 0 -29.91c0,-3.42 -0.59,-6.03 -1.75,-7.85 -1.16,-1.83 -2.92,-2.73 -5.26,-2.73 -1.05,0 -2.07,0.16 -3.08,0.46 -0.98,0.33 -1.91,0.75 -2.8,1.27 -0.88,0.54 -1.7,1.12 -2.47,1.76 -0.78,0.66 -1.47,1.32 -2.09,2.03l0 34.98 -9.42 0 0 -48.33 9.11 0 0.31 4.82c0.68,-0.78 1.45,-1.53 2.3,-2.23 0.84,-0.71 1.79,-1.35 2.81,-1.89 1.03,-0.54 2.13,-0.98 3.32,-1.3 1.2,-0.32 2.45,-0.48 3.79,-0.48 5,0 8.69,1.61 11.06,4.83 2.39,3.21 3.57,7.89 3.57,14l0 30.6zm22.68 -22.44c0,2.59 0.24,4.78 0.69,6.58 0.45,1.81 1.12,3.28 1.98,4.42 0.85,1.12 1.91,1.95 3.16,2.47 1.24,0.5 2.64,0.77 4.21,0.77 1.69,0 3.52,-0.48 5.43,-1.45 1.92,-0.97 3.76,-2.34 5.48,-4.1l0 -26.9c-0.85,-0.25 -1.81,-0.41 -2.89,-0.53 -1.07,-0.11 -2.19,-0.18 -3.32,-0.18 -2.74,0 -5.04,0.55 -6.94,1.63 -1.87,1.06 -3.39,2.49 -4.55,4.26 -1.15,1.76 -1.98,3.77 -2.5,6.03 -0.5,2.27 -0.75,4.59 -0.75,6.99zm-9.62 0.38c0,-4.12 0.55,-7.85 1.67,-11.23 1.1,-3.38 2.67,-6.25 4.7,-8.64 2.02,-2.37 4.49,-4.2 7.38,-5.53 2.91,-1.3 6.15,-1.97 9.71,-1.97 1.61,0 3.23,0.09 4.79,0.26 1.57,0.19 3.05,0.41 4.49,0.69 1.44,0.28 2.78,0.6 4.03,0.96 1.24,0.39 2.31,0.77 3.23,1.15l0 43.61c0,5.02 -0.37,9.45 -1.1,13.26 -0.73,3.83 -1.97,7.02 -3.69,9.6 -1.74,2.57 -4.01,4.5 -6.85,5.79 -2.85,1.3 -6.37,1.95 -10.58,1.95 -2.43,0 -4.79,-0.2 -7.05,-0.58 -2.26,-0.41 -4.29,-0.97 -6.12,-1.73l0 -9.62c2.48,0.9 4.88,1.59 7.18,2.07 2.33,0.46 4.53,0.7 6.65,0.7 2.42,0 4.41,-0.52 5.97,-1.54 1.57,-1.05 2.8,-2.47 3.72,-4.26 0.91,-1.82 1.53,-3.92 1.9,-6.35 0.35,-2.43 0.54,-5.05 0.54,-7.82l0 -3.78c-1.82,1.59 -3.78,2.87 -5.86,3.9 -2.09,1.03 -4.45,1.53 -7.05,1.53 -2.91,0 -5.45,-0.53 -7.65,-1.57 -2.2,-1.02 -4.05,-2.53 -5.53,-4.46 -1.48,-1.95 -2.6,-4.3 -3.36,-7.08 -0.75,-2.75 -1.11,-5.86 -1.11,-9.32zm85.19 11.35c0.39,0.4 0.88,0.8 1.47,1.2 0.58,0.42 1.25,0.79 2.02,1.13 0.77,0.33 1.62,0.6 2.57,0.83 0.93,0.22 1.95,0.32 3.02,0.32 2.02,0 3.83,-0.4 5.38,-1.18 1.57,-0.78 2.91,-1.91 4.01,-3.42 1.1,-1.48 1.96,-3.31 2.52,-5.46 0.57,-2.17 0.85,-4.6 0.85,-7.31 0,-2.56 -0.26,-4.82 -0.78,-6.83 -0.52,-2.01 -1.25,-3.7 -2.22,-5.1 -0.95,-1.39 -2.11,-2.45 -3.43,-3.2 -1.31,-0.74 -2.75,-1.12 -4.33,-1.12 -1.27,0 -2.45,0.16 -3.53,0.5 -1.08,0.33 -2.11,0.78 -3.02,1.32 -0.94,0.54 -1.77,1.16 -2.53,1.82 -0.75,0.67 -1.42,1.33 -2,1.99l0 24.51zm-9.42 -37.62l9.22 0 0.2 4.29c1.57,-1.45 3.39,-2.71 5.48,-3.77 2.08,-1.07 4.5,-1.61 7.24,-1.61 2.64,0 5.09,0.55 7.39,1.63 2.29,1.07 4.26,2.65 5.93,4.77 1.65,2.08 2.95,4.7 3.9,7.79 0.95,3.09 1.42,6.69 1.42,10.77 0,3.77 -0.44,7.21 -1.37,10.32 -0.92,3.13 -2.24,5.81 -3.99,8.04 -1.74,2.25 -3.89,3.97 -6.43,5.22 -2.54,1.23 -5.43,1.85 -8.66,1.85 -2.03,0 -4,-0.28 -5.91,-0.82 -1.93,-0.55 -3.6,-1.29 -5,-2.18l0 29.88 -9.42 0 0 -76.17zm71.12 -1.09c1.1,0 2.17,0.15 3.19,0.45 1.03,0.3 2.07,0.68 3.1,1.15l0 9.17c-1.1,-0.32 -2.28,-0.54 -3.53,-0.68 -1.23,-0.14 -2.41,-0.2 -3.51,-0.2 -1.23,0 -2.29,0.32 -3.16,0.96 -0.86,0.67 -1.55,1.51 -2.07,2.59 -0.52,1.09 -0.9,2.34 -1.14,3.78 -0.22,1.43 -0.33,2.93 -0.33,4.5l0 27.7 -9.42 0 0 -32.08c0,-1.45 -0.04,-3 -0.15,-4.6 -0.1,-1.61 -0.22,-3.16 -0.37,-4.64 -0.13,-1.51 -0.3,-2.86 -0.48,-4.1 -0.17,-1.23 -0.33,-2.21 -0.5,-2.91l7.94 0c0.17,0.36 0.33,0.82 0.5,1.45 0.15,0.6 0.31,1.27 0.45,1.98 0.15,0.72 0.28,1.51 0.41,2.34 0.14,0.82 0.24,1.62 0.3,2.41 0.48,-0.98 1,-2.01 1.56,-3.09 0.56,-1.06 1.2,-2.06 1.92,-2.99 0.7,-0.93 1.5,-1.69 2.35,-2.27 0.87,-0.6 1.83,-0.91 2.93,-0.91zm48.12 25.06c0,-5.34 -0.99,-9.36 -2.94,-12.07 -1.96,-2.71 -4.81,-4.05 -8.57,-4.05 -3.8,0 -6.73,1.38 -8.86,4.18 -2.12,2.79 -3.19,6.85 -3.19,12.17 0,2.56 0.28,4.84 0.84,6.87 0.55,2 1.35,3.71 2.39,5.12 1.06,1.38 2.32,2.45 3.81,3.19 1.49,0.74 3.16,1.13 5.01,1.13 3.75,0 6.61,-1.41 8.57,-4.24 1.96,-2.84 2.94,-6.93 2.94,-12.29zm9.42 0.02c0,3.82 -0.5,7.3 -1.52,10.43 -1,3.14 -2.43,5.81 -4.29,8.04 -1.87,2.21 -4.12,3.94 -6.79,5.14 -2.65,1.23 -5.64,1.83 -8.96,1.83 -3.19,0 -6.1,-0.58 -8.69,-1.77 -2.59,-1.16 -4.79,-2.83 -6.61,-4.96 -1.84,-2.15 -3.24,-4.74 -4.25,-7.82 -0.99,-3.05 -1.48,-6.46 -1.48,-10.24 0,-4.04 0.49,-7.63 1.52,-10.82 1,-3.18 2.48,-5.87 4.37,-8.1 1.91,-2.21 4.23,-3.9 6.95,-5.06 2.71,-1.15 5.78,-1.74 9.2,-1.74 3.31,0 6.21,0.56 8.75,1.71 2.56,1.15 4.7,2.79 6.43,4.94 1.75,2.17 3.08,4.79 3.99,7.9 0.93,3.09 1.37,6.61 1.37,10.52zm20.74 0.63c0,2.73 0.28,5.12 0.84,7.11 0.55,2.01 1.31,3.65 2.27,4.94 0.97,1.3 2.09,2.27 3.36,2.9 1.27,0.62 2.64,0.94 4.08,0.94 1.23,0 2.41,-0.19 3.54,-0.56 1.14,-0.36 2.17,-0.83 3.14,-1.38 0.97,-0.55 1.83,-1.15 2.63,-1.79 0.78,-0.64 1.45,-1.25 2,-1.81l0 -24.25c-0.38,-0.4 -0.92,-0.79 -1.57,-1.2 -0.65,-0.42 -1.37,-0.78 -2.18,-1.13 -0.79,-0.32 -1.67,-0.6 -2.57,-0.82 -0.92,-0.22 -1.85,-0.33 -2.8,-0.33 -1.59,0 -3.16,0.28 -4.69,0.86 -1.54,0.56 -2.91,1.52 -4.1,2.87 -1.19,1.37 -2.13,3.14 -2.86,5.37 -0.71,2.2 -1.08,4.98 -1.08,8.28zm31.27 23.73l-9.03 0 -0.29 -4.24c-0.75,0.71 -1.62,1.37 -2.59,2.01 -0.98,0.62 -2.04,1.18 -3.18,1.67 -1.14,0.5 -2.34,0.88 -3.6,1.18 -1.25,0.3 -2.54,0.47 -3.84,0.47 -2.64,0 -5.08,-0.55 -7.3,-1.63 -2.22,-1.07 -4.14,-2.65 -5.76,-4.76 -1.64,-2.09 -2.91,-4.7 -3.83,-7.79 -0.93,-3.09 -1.37,-6.7 -1.37,-10.77 0,-3.86 0.48,-7.35 1.46,-10.49 0.97,-3.13 2.37,-5.83 4.18,-8.06 1.82,-2.25 4.03,-3.97 6.62,-5.18 2.58,-1.23 5.49,-1.83 8.68,-1.83 2.03,0 3.91,0.29 5.68,0.85 1.75,0.59 3.34,1.3 4.74,2.21l0 -29.81 9.42 0 0 76.17zm15.5 -48.33l9.41 0 0 29.9c0,3.38 0.59,5.98 1.74,7.82 1.17,1.85 2.93,2.78 5.27,2.78 1.05,0 2.07,-0.17 3.08,-0.47 0.98,-0.32 1.91,-0.74 2.8,-1.26 0.88,-0.55 1.7,-1.13 2.47,-1.77 0.78,-0.66 1.47,-1.32 2.09,-2.03l0 -34.97 9.43 0 0 48.33 -9.13 0 -0.3 -4.82c-0.68,0.74 -1.45,1.46 -2.3,2.17 -0.84,0.71 -1.79,1.35 -2.81,1.89 -1.03,0.55 -2.14,0.99 -3.32,1.32 -1.2,0.34 -2.46,0.53 -3.79,0.53 -5,0 -8.69,-1.61 -11.06,-4.8 -2.39,-3.19 -3.57,-7.85 -3.57,-13.98l0 -30.64zm59.43 24.73c0,2.75 0.32,5.09 0.96,7.09 0.63,1.97 1.48,3.6 2.52,4.88 1.05,1.26 2.25,2.21 3.64,2.79 1.4,0.58 2.82,0.88 4.29,0.88 2.91,0 5.48,-0.5 7.72,-1.51 2.22,-1 4.37,-2.23 6.43,-3.68l0 9.26c-1.95,1.62 -4.15,2.85 -6.59,3.69 -2.46,0.85 -5.27,1.27 -8.43,1.27 -2.93,0 -5.62,-0.56 -8.1,-1.67 -2.46,-1.12 -4.57,-2.75 -6.33,-4.9 -1.77,-2.12 -3.15,-4.73 -4.15,-7.79 -0.98,-3.05 -1.48,-6.53 -1.48,-10.43 0,-4.24 0.58,-7.95 1.75,-11.15 1.19,-3.19 2.76,-5.87 4.76,-8.04 1.99,-2.15 4.31,-3.77 6.98,-4.87 2.68,-1.11 5.5,-1.66 8.47,-1.66 2.16,0 4.4,0.33 6.73,0.97 2.33,0.64 4.47,1.71 6.38,3.16l0 9.74c-2.05,-1.56 -4.17,-2.77 -6.35,-3.6 -2.17,-0.82 -4.42,-1.23 -6.78,-1.23 -1.66,0 -3.24,0.3 -4.77,0.91 -1.52,0.63 -2.84,1.6 -3.97,2.95 -1.12,1.35 -2.02,3.09 -2.69,5.2 -0.67,2.13 -1,4.68 -1,7.72zm62.43 22.55c-1.1,0.71 -2.45,1.25 -4.02,1.6 -1.56,0.34 -3.2,0.53 -4.9,0.53 -3.96,0 -6.78,-1.3 -8.47,-3.9 -1.7,-2.59 -2.56,-6.55 -2.56,-11.9l0 -25.91 -7.52 0 0 -7.71 7.82 0c0.56,-2.09 1.12,-4.26 1.69,-6.51 0.56,-2.25 1.1,-4.38 1.59,-6.39l5.84 0 0 12.9 11.21 0 0 7.71 -11.21 0 0 27.62c0,1.68 0.35,3.05 1.08,4.08 0.71,1.04 1.77,1.56 3.14,1.56 1.2,0 2.34,-0.05 3.38,-0.19 1.05,-0.14 2.02,-0.3 2.93,-0.5l0 7.01zm37.27 -12.53c0,2.09 -0.3,4.02 -0.9,5.8 -0.6,1.79 -1.52,3.34 -2.74,4.64 -1.22,1.32 -2.75,2.35 -4.61,3.09 -1.83,0.74 -3.99,1.13 -6.48,1.13 -2.41,0 -4.7,-0.36 -6.85,-1.08 -2.16,-0.75 -3.97,-1.77 -5.48,-3.12l0 -9.78c0.85,0.71 1.79,1.39 2.8,2.07 1.04,0.66 2.09,1.24 3.16,1.73 1.08,0.5 2.14,0.88 3.18,1.19 1.05,0.3 2,0.44 2.89,0.44 2.12,0 3.68,-0.55 4.64,-1.65 0.99,-1.08 1.47,-2.41 1.47,-3.97 0,-0.83 -0.1,-1.57 -0.3,-2.21 -0.19,-0.64 -0.55,-1.27 -1.08,-1.83 -0.56,-0.56 -1.29,-1.12 -2.26,-1.67 -0.97,-0.56 -2.19,-1.15 -3.69,-1.76 -2.05,-0.91 -3.77,-1.87 -5.16,-2.86 -1.39,-1 -2.49,-2.11 -3.33,-3.3 -0.83,-1.2 -1.42,-2.51 -1.79,-3.9 -0.34,-1.38 -0.53,-2.92 -0.53,-4.56 0,-2.12 0.38,-4.06 1.15,-5.81 0.77,-1.73 1.8,-3.23 3.12,-4.5 1.32,-1.24 2.87,-2.23 4.66,-2.91 1.77,-0.69 3.68,-1.03 5.69,-1.03 1.82,0 3.63,0.23 5.38,0.64 1.78,0.45 3.48,1.19 5.15,2.24l0 8.81c-1.6,-0.86 -3.29,-1.59 -5.06,-2.15 -1.79,-0.58 -3.54,-0.86 -5.26,-0.86 -2.02,0 -3.54,0.53 -4.57,1.55 -1.02,1.02 -1.54,2.33 -1.54,3.9 0,0.66 0.11,1.3 0.32,1.89 0.22,0.58 0.58,1.16 1.1,1.71 0.52,0.54 1.24,1.1 2.16,1.67 0.9,0.58 2.07,1.16 3.47,1.75 1.96,0.83 3.65,1.69 5.06,2.62 1.43,0.92 2.59,1.95 3.53,3.09 0.92,1.15 1.6,2.45 2.04,3.91 0.45,1.47 0.66,3.17 0.66,5.09zm53.94 12.53c-1.1,0.71 -2.45,1.25 -4.02,1.6 -1.55,0.34 -3.19,0.53 -4.89,0.53 -3.97,0 -6.79,-1.3 -8.48,-3.9 -1.7,-2.59 -2.56,-6.55 -2.56,-11.9l0 -25.91 -7.52 0 0 -7.71 7.82 0c0.56,-2.09 1.13,-4.26 1.69,-6.51 0.56,-2.25 1.1,-4.38 1.59,-6.39l5.85 0 0 12.9 11.2 0 0 7.71 -11.2 0 0 27.62c0,1.68 0.34,3.05 1.07,4.08 0.71,1.04 1.77,1.56 3.14,1.56 1.21,0 2.34,-0.05 3.38,-0.19 1.05,-0.14 2.02,-0.3 2.93,-0.5l0 7.01zm42.36 -23.32c0,-5.34 -0.99,-9.36 -2.94,-12.07 -1.95,-2.71 -4.8,-4.05 -8.57,-4.05 -3.79,0 -6.73,1.38 -8.85,4.18 -2.12,2.79 -3.2,6.85 -3.2,12.17 0,2.56 0.29,4.84 0.85,6.87 0.55,2 1.35,3.71 2.38,5.12 1.06,1.38 2.33,2.45 3.82,3.19 1.48,0.74 3.16,1.13 5.01,1.13 3.76,0 6.62,-1.41 8.57,-4.24 1.96,-2.84 2.94,-6.93 2.94,-12.29zm9.42 0.02c0,3.82 -0.5,7.3 -1.52,10.43 -1,3.14 -2.44,5.81 -4.29,8.04 -1.87,2.21 -4.13,3.94 -6.79,5.14 -2.66,1.23 -5.65,1.83 -8.97,1.83 -3.19,0 -6.1,-0.58 -8.69,-1.77 -2.58,-1.16 -4.79,-2.83 -6.61,-4.96 -1.84,-2.15 -3.24,-4.74 -4.24,-7.82 -0.99,-3.05 -1.49,-6.46 -1.49,-10.24 0,-4.04 0.5,-7.63 1.52,-10.82 1,-3.18 2.48,-5.87 4.38,-8.1 1.9,-2.21 4.22,-3.9 6.95,-5.06 2.71,-1.15 5.78,-1.74 9.21,-1.74 3.31,0 6.21,0.56 8.75,1.71 2.56,1.15 4.7,2.79 6.43,4.94 1.75,2.17 3.07,4.79 3.99,7.9 0.92,3.09 1.37,6.61 1.37,10.52zm54.93 23.3c-1.1,0.71 -2.46,1.25 -4.03,1.6 -1.55,0.34 -3.19,0.53 -4.89,0.53 -3.96,0 -6.78,-1.3 -8.47,-3.9 -1.7,-2.59 -2.56,-6.55 -2.56,-11.9l0 -25.91 -7.52 0 0 -7.71 7.82 0c0.56,-2.09 1.12,-4.26 1.68,-6.51 0.57,-2.25 1.11,-4.38 1.6,-6.39l5.84 0 0 12.9 11.21 0 0 7.71 -11.21 0 0 27.62c0,1.68 0.35,3.05 1.08,4.08 0.71,1.04 1.76,1.56 3.14,1.56 1.2,0 2.34,-0.05 3.38,-0.19 1.05,-0.14 2.02,-0.3 2.93,-0.5l0 7.01zm48.41 1.05l-9.42 0 0 -29.91c0,-3.42 -0.59,-6.03 -1.74,-7.85 -1.17,-1.83 -2.93,-2.73 -5.26,-2.73 -1.15,0 -2.24,0.16 -3.26,0.5 -1.03,0.32 -1.98,0.76 -2.87,1.32 -0.88,0.55 -1.68,1.15 -2.41,1.82 -0.71,0.67 -1.36,1.33 -1.9,1.99l0 34.86 -9.42 0 0 -76.17 9.42 0 0 24.56c0,0.48 0,1.05 -0.02,1.73 -0.02,0.66 -0.04,1.35 -0.05,2.09 -0.01,0.72 -0.03,1.43 -0.04,2.12 -0.02,0.68 -0.05,1.3 -0.09,1.84 0.69,-0.7 1.49,-1.38 2.41,-2.04 0.92,-0.66 1.9,-1.27 3,-1.81 1.07,-0.53 2.2,-0.94 3.38,-1.27 1.19,-0.3 2.41,-0.47 3.65,-0.47 4.99,0 8.68,1.66 11.05,4.94 2.39,3.3 3.58,8 3.58,14.13l0 30.35zm33.92 -40.62c-3.15,0 -5.7,0.94 -7.68,2.86 -1.98,1.9 -3.29,4.7 -3.94,8.36l21.25 0c-0.17,-3.66 -1.07,-6.45 -2.74,-8.36 -1.67,-1.91 -3.97,-2.86 -6.89,-2.86zm-20.93 16.16c0,-3.72 0.49,-7.14 1.52,-10.21 1,-3.08 2.44,-5.71 4.27,-7.9 1.86,-2.17 4.06,-3.86 6.64,-5.07 2.59,-1.18 5.45,-1.79 8.62,-1.79 3.09,0 5.82,0.55 8.15,1.61 2.32,1.08 4.29,2.64 5.9,4.62 1.6,1.99 2.79,4.44 3.59,7.35 0.8,2.9 1.21,6.17 1.21,9.81l0 4.82 -30.78 0c0.18,2.01 0.61,3.85 1.3,5.56 0.71,1.73 1.64,3.2 2.84,4.4 1.19,1.23 2.59,2.17 4.21,2.87 1.6,0.69 3.39,1.02 5.35,1.02 1.15,0 2.35,-0.11 3.66,-0.38 1.29,-0.26 2.61,-0.63 3.96,-1.13 1.35,-0.48 2.71,-1.08 4.06,-1.81 1.35,-0.7 2.65,-1.52 3.89,-2.47l0 8.92c-2.47,1.68 -5.09,3 -7.85,3.91 -2.75,0.93 -5.89,1.39 -9.4,1.39 -3.27,0 -6.2,-0.58 -8.8,-1.73 -2.6,-1.17 -4.82,-2.86 -6.65,-5.04 -1.83,-2.19 -3.24,-4.88 -4.2,-8.04 -0.99,-3.16 -1.47,-6.73 -1.47,-10.74zm109.16 24.47l-9.42 0 0 -29.91c0,-3.42 -0.58,-6.03 -1.74,-7.85 -1.17,-1.83 -2.93,-2.73 -5.26,-2.73 -1.15,0 -2.24,0.16 -3.25,0.5 -1.04,0.32 -1.99,0.76 -2.88,1.32 -0.88,0.55 -1.68,1.15 -2.41,1.82 -0.71,0.67 -1.35,1.33 -1.9,1.99l0 34.86 -9.42 0 0 -76.17 9.42 0 0 24.56c0,0.48 0,1.05 -0.02,1.73 -0.02,0.66 -0.03,1.35 -0.04,2.09 -0.02,0.72 -0.04,1.43 -0.05,2.12 -0.02,0.68 -0.05,1.3 -0.08,1.84 0.68,-0.7 1.48,-1.38 2.4,-2.04 0.93,-0.66 1.91,-1.27 3,-1.81 1.07,-0.53 2.2,-0.94 3.38,-1.27 1.19,-0.3 2.41,-0.47 3.65,-0.47 5,0 8.68,1.66 11.05,4.94 2.4,3.3 3.58,8 3.58,14.13l0 30.35zm33.92 -40.62c-3.14,0 -5.7,0.94 -7.67,2.86 -1.99,1.9 -3.29,4.7 -3.94,8.36l21.25 0c-0.17,-3.66 -1.08,-6.45 -2.74,-8.36 -1.67,-1.91 -3.97,-2.86 -6.9,-2.86zm-20.93 16.16c0,-3.72 0.5,-7.14 1.52,-10.21 1,-3.08 2.44,-5.71 4.27,-7.9 1.86,-2.17 4.06,-3.86 6.64,-5.07 2.59,-1.18 5.45,-1.79 8.62,-1.79 3.09,0 5.82,0.55 8.15,1.61 2.33,1.08 4.29,2.64 5.9,4.62 1.6,1.99 2.79,4.44 3.6,7.35 0.79,2.9 1.2,6.17 1.2,9.81l0 4.82 -30.77 0c0.17,2.01 0.6,3.85 1.3,5.56 0.7,1.73 1.63,3.2 2.84,4.4 1.18,1.23 2.59,2.17 4.21,2.87 1.6,0.69 3.38,1.02 5.34,1.02 1.15,0 2.36,-0.11 3.66,-0.38 1.29,-0.26 2.61,-0.63 3.97,-1.13 1.35,-0.48 2.71,-1.08 4.05,-1.81 1.35,-0.7 2.66,-1.52 3.9,-2.47l0 8.92c-2.48,1.68 -5.1,3 -7.86,3.91 -2.75,0.93 -5.89,1.39 -9.4,1.39 -3.28,0 -6.2,-0.58 -8.8,-1.73 -2.61,-1.17 -4.83,-2.86 -6.65,-5.04 -1.83,-2.19 -3.23,-4.88 -4.2,-8.04 -0.99,-3.16 -1.47,-6.73 -1.47,-10.74zm76.41 2.28c-0.75,-0.08 -1.59,-0.14 -2.5,-0.18 -0.92,-0.04 -1.87,-0.06 -2.89,-0.06 -2.19,0 -3.99,0.24 -5.39,0.71 -1.4,0.48 -2.52,1.1 -3.34,1.89 -0.82,0.78 -1.39,1.67 -1.72,2.65 -0.33,0.99 -0.49,1.98 -0.49,3.05 0,2.01 0.5,3.64 1.51,4.88 0.99,1.27 2.39,1.89 4.19,1.89 1.82,0 3.7,-0.48 5.59,-1.46 1.9,-0.99 3.59,-2.31 5.06,-3.96l0 -9.4zm9.04 23.27c-1.21,0 -2.26,-0.14 -3.18,-0.44 -0.9,-0.31 -1.68,-0.71 -2.34,-1.23 -0.65,-0.54 -1.21,-1.18 -1.64,-1.92 -0.45,-0.75 -0.8,-1.59 -1.05,-2.53 -1.57,1.73 -3.41,3.19 -5.54,4.35 -2.12,1.19 -4.65,1.77 -7.59,1.77 -2.29,0 -4.29,-0.39 -5.99,-1.13 -1.72,-0.74 -3.15,-1.79 -4.27,-3.11 -1.14,-1.35 -1.97,-2.89 -2.56,-4.68 -0.56,-1.79 -0.85,-3.74 -0.85,-5.87 0,-5.26 1.67,-9.3 5.02,-12.09 3.34,-2.81 8.3,-4.22 14.85,-4.22 0.99,0 1.96,0.03 2.93,0.09 0.97,0.05 2.02,0.16 3.16,0.27 0,-3.57 -0.62,-6.33 -1.87,-8.23 -1.24,-1.91 -3.28,-2.86 -6.12,-2.86 -2.04,0 -4.11,0.3 -6.21,0.93 -2.11,0.6 -4.2,1.43 -6.25,2.45l0 -8.76c1.81,-1.02 3.84,-1.82 6.14,-2.41 2.31,-0.58 4.53,-0.89 6.69,-0.89 2.77,0 5.23,0.33 7.35,0.97 2.12,0.66 3.89,1.73 5.32,3.23 1.44,1.52 2.52,3.52 3.26,5.98 0.73,2.47 1.1,5.51 1.1,9.12l0 18.64c0,1.41 0.3,2.45 0.91,3.11 0.6,0.67 1.23,1 1.89,1 0.65,0 1.24,-0.02 1.82,-0.08 0.56,-0.06 1.19,-0.19 1.91,-0.38l0 6.77c-0.83,0.71 -1.82,1.25 -3.01,1.6 -1.19,0.34 -2.49,0.53 -3.89,0.53zm26.83 -1.08l-9.41 0 0 -76.17 9.41 0 0 76.17zm26.74 -62.12c0,0.94 -0.17,1.79 -0.48,2.53 -0.33,0.75 -0.77,1.39 -1.3,1.93 -0.54,0.52 -1.15,0.93 -1.88,1.21 -0.71,0.26 -1.47,0.4 -2.26,0.4 -1.62,0 -3.01,-0.52 -4.12,-1.56 -1.12,-1.03 -1.68,-2.54 -1.68,-4.5 0,-1.87 0.56,-3.33 1.68,-4.4 1.12,-1.07 2.5,-1.59 4.12,-1.59 0.78,0 1.54,0.14 2.26,0.41 0.72,0.27 1.34,0.68 1.88,1.2 0.53,0.55 0.97,1.16 1.3,1.89 0.32,0.72 0.48,1.56 0.48,2.49zm-1.3 62.12l-9.42 0 0 -48.33 9.42 0 0 48.33zm52.4 0l-9.41 0 0 -29.91c0,-3.42 -0.59,-6.03 -1.74,-7.85 -1.17,-1.83 -2.93,-2.73 -5.27,-2.73 -1.05,0 -2.07,0.16 -3.08,0.46 -0.98,0.33 -1.91,0.75 -2.8,1.27 -0.88,0.54 -1.7,1.12 -2.47,1.76 -0.78,0.66 -1.47,1.32 -2.09,2.03l0 34.98 -9.42 0 0 -48.33 9.12 0 0.3 4.82c0.68,-0.78 1.45,-1.53 2.3,-2.23 0.84,-0.71 1.79,-1.35 2.81,-1.89 1.03,-0.54 2.13,-0.98 3.32,-1.3 1.2,-0.32 2.46,-0.48 3.79,-0.48 5,0 8.69,1.61 11.06,4.83 2.39,3.21 3.57,7.89 3.57,14l0 30.6zm22.67 -22.44c0,2.59 0.24,4.78 0.68,6.58 0.46,1.81 1.13,3.28 1.99,4.42 0.85,1.12 1.9,1.95 3.16,2.47 1.24,0.5 2.64,0.77 4.21,0.77 1.69,0 3.51,-0.48 5.43,-1.45 1.92,-0.97 3.76,-2.34 5.48,-4.1l0 -26.9c-0.85,-0.25 -1.81,-0.41 -2.89,-0.53 -1.08,-0.11 -2.19,-0.18 -3.32,-0.18 -2.74,0 -5.05,0.55 -6.94,1.63 -1.87,1.06 -3.39,2.49 -4.55,4.26 -1.15,1.76 -1.98,3.77 -2.5,6.03 -0.5,2.27 -0.75,4.59 -0.75,6.99zm-9.62 0.38c0,-4.12 0.56,-7.85 1.67,-11.23 1.1,-3.38 2.67,-6.25 4.69,-8.64 2.03,-2.37 4.49,-4.2 7.39,-5.53 2.91,-1.3 6.15,-1.97 9.7,-1.97 1.62,0 3.23,0.09 4.79,0.26 1.57,0.19 3.06,0.41 4.49,0.69 1.44,0.28 2.78,0.6 4.03,0.96 1.23,0.39 2.31,0.77 3.23,1.15l0 43.61c0,5.02 -0.37,9.45 -1.1,13.26 -0.74,3.83 -1.97,7.02 -3.69,9.6 -1.74,2.57 -4.01,4.5 -6.85,5.79 -2.85,1.3 -6.37,1.95 -10.58,1.95 -2.44,0 -4.79,-0.2 -7.05,-0.58 -2.26,-0.41 -4.29,-0.97 -6.12,-1.73l0 -9.62c2.48,0.9 4.88,1.59 7.18,2.07 2.33,0.46 4.53,0.7 6.65,0.7 2.41,0 4.41,-0.52 5.96,-1.54 1.58,-1.05 2.81,-2.47 3.73,-4.26 0.9,-1.82 1.53,-3.92 1.9,-6.35 0.35,-2.43 0.54,-5.05 0.54,-7.82l0 -3.78c-1.82,1.59 -3.78,2.87 -5.86,3.9 -2.09,1.03 -4.45,1.53 -7.05,1.53 -2.91,0 -5.45,-0.53 -7.65,-1.57 -2.21,-1.02 -4.05,-2.53 -5.53,-4.46 -1.49,-1.95 -2.61,-4.3 -3.36,-7.08 -0.75,-2.75 -1.12,-5.86 -1.12,-9.32zm112.06 22.06l-9.43 0 0 -29.91c0,-3.42 -0.58,-6.03 -1.74,-7.85 -1.16,-1.83 -2.93,-2.73 -5.26,-2.73 -1.15,0 -2.24,0.16 -3.25,0.5 -1.04,0.32 -1.99,0.76 -2.88,1.32 -0.88,0.55 -1.68,1.15 -2.4,1.82 -0.72,0.67 -1.36,1.33 -1.9,1.99l0 34.86 -9.42 0 0 -76.17 9.42 0 0 24.56c0,0.48 0,1.05 -0.02,1.73 -0.02,0.66 -0.04,1.35 -0.05,2.09 -0.02,0.72 -0.04,1.43 -0.04,2.12 -0.03,0.68 -0.05,1.3 -0.09,1.84 0.69,-0.7 1.49,-1.38 2.41,-2.04 0.92,-0.66 1.9,-1.27 2.99,-1.81 1.08,-0.53 2.2,-0.94 3.39,-1.27 1.18,-0.3 2.41,-0.47 3.64,-0.47 5,0 8.69,1.66 11.06,4.94 2.39,3.3 3.58,8 3.58,14.13l0 30.35zm38.22 -22.18c-0.76,-0.08 -1.59,-0.14 -2.5,-0.18 -0.93,-0.04 -1.88,-0.06 -2.89,-0.06 -2.19,0 -4,0.24 -5.4,0.71 -1.4,0.48 -2.52,1.1 -3.34,1.89 -0.82,0.78 -1.38,1.67 -1.72,2.65 -0.32,0.99 -0.48,1.98 -0.48,3.05 0,2.01 0.5,3.64 1.5,4.88 1,1.27 2.39,1.89 4.2,1.89 1.82,0 3.69,-0.48 5.58,-1.46 1.9,-0.99 3.6,-2.31 5.07,-3.96l0 -9.4zm9.03 23.27c-1.2,0 -2.26,-0.14 -3.17,-0.44 -0.9,-0.31 -1.68,-0.71 -2.34,-1.23 -0.65,-0.54 -1.21,-1.18 -1.64,-1.92 -0.45,-0.75 -0.8,-1.59 -1.06,-2.53 -1.57,1.73 -3.4,3.19 -5.54,4.35 -2.12,1.19 -4.64,1.77 -7.59,1.77 -2.28,0 -4.28,-0.39 -5.99,-1.13 -1.72,-0.74 -3.14,-1.79 -4.26,-3.11 -1.14,-1.35 -1.97,-2.89 -2.56,-4.68 -0.57,-1.79 -0.85,-3.74 -0.85,-5.87 0,-5.26 1.67,-9.3 5.03,-12.09 3.34,-2.81 8.3,-4.22 14.85,-4.22 0.99,0 1.95,0.03 2.92,0.09 0.97,0.05 2.03,0.16 3.16,0.27 0,-3.57 -0.63,-6.33 -1.88,-8.23 -1.23,-1.91 -3.27,-2.86 -6.11,-2.86 -2.04,0 -4.12,0.3 -6.21,0.93 -2.11,0.6 -4.2,1.43 -6.25,2.45l0 -8.76c1.8,-1.02 3.84,-1.82 6.14,-2.41 2.31,-0.58 4.53,-0.89 6.69,-0.89 2.77,0 5.23,0.33 7.34,0.97 2.12,0.66 3.9,1.73 5.33,3.23 1.44,1.52 2.52,3.52 3.26,5.98 0.73,2.47 1.1,5.51 1.1,9.12l0 18.64c0,1.41 0.3,2.45 0.9,3.11 0.6,0.67 1.23,1 1.89,1 0.65,0 1.25,-0.02 1.82,-0.08 0.55,-0.06 1.18,-0.19 1.9,-0.38l0 6.77c-0.82,0.71 -1.82,1.25 -3.01,1.6 -1.19,0.34 -2.49,0.53 -3.9,0.53zm53.69 -1.08l-9.42 0 0 -29.91c0,-3.42 -0.58,-6.03 -1.74,-7.85 -1.17,-1.83 -2.93,-2.73 -5.26,-2.73 -1.06,0 -2.07,0.16 -3.08,0.46 -0.99,0.33 -1.92,0.75 -2.81,1.27 -0.88,0.54 -1.69,1.12 -2.47,1.76 -0.77,0.66 -1.47,1.32 -2.09,2.03l0 34.98 -9.42 0 0 -48.33 9.12 0 0.3 4.82c0.69,-0.78 1.45,-1.53 2.31,-2.23 0.84,-0.71 1.79,-1.35 2.8,-1.89 1.04,-0.54 2.14,-0.98 3.32,-1.3 1.21,-0.32 2.46,-0.48 3.8,-0.48 4.99,0 8.68,1.61 11.05,4.83 2.4,3.21 3.58,7.89 3.58,14l0 30.6zm22.56 -23.73c0,2.73 0.28,5.12 0.84,7.11 0.55,2.01 1.31,3.65 2.27,4.94 0.96,1.3 2.09,2.27 3.35,2.9 1.27,0.62 2.64,0.94 4.08,0.94 1.23,0 2.42,-0.19 3.54,-0.56 1.13,-0.36 2.17,-0.83 3.14,-1.38 0.97,-0.55 1.84,-1.15 2.63,-1.79 0.78,-0.64 1.45,-1.25 2,-1.81l0 -24.25c-0.39,-0.4 -0.92,-0.79 -1.57,-1.2 -0.65,-0.42 -1.37,-0.78 -2.17,-1.13 -0.8,-0.32 -1.67,-0.6 -2.57,-0.82 -0.92,-0.22 -1.86,-0.33 -2.81,-0.33 -1.59,0 -3.16,0.28 -4.69,0.86 -1.54,0.56 -2.91,1.52 -4.1,2.87 -1.18,1.37 -2.13,3.14 -2.86,5.37 -0.71,2.2 -1.08,4.98 -1.08,8.28zm31.27 23.73l-9.03 0 -0.29 -4.24c-0.75,0.71 -1.61,1.37 -2.58,2.01 -0.99,0.62 -2.04,1.18 -3.19,1.67 -1.14,0.5 -2.34,0.88 -3.6,1.18 -1.25,0.3 -2.54,0.47 -3.84,0.47 -2.64,0 -5.08,-0.55 -7.3,-1.63 -2.22,-1.07 -4.14,-2.65 -5.76,-4.76 -1.64,-2.09 -2.91,-4.7 -3.83,-7.79 -0.92,-3.09 -1.37,-6.7 -1.37,-10.77 0,-3.86 0.48,-7.35 1.48,-10.49 0.96,-3.13 2.37,-5.83 4.17,-8.06 1.82,-2.25 4.03,-3.97 6.62,-5.18 2.59,-1.23 5.49,-1.83 8.68,-1.83 2.03,0 3.91,0.29 5.68,0.85 1.75,0.59 3.34,1.3 4.74,2.21l0 -29.81 9.42 0 0 76.17zm40.88 -13.58c0,2.09 -0.3,4.02 -0.9,5.8 -0.6,1.79 -1.52,3.34 -2.74,4.64 -1.22,1.32 -2.75,2.35 -4.61,3.09 -1.84,0.74 -3.99,1.13 -6.48,1.13 -2.41,0 -4.7,-0.36 -6.86,-1.08 -2.15,-0.75 -3.97,-1.77 -5.47,-3.12l0 -9.78c0.85,0.71 1.79,1.39 2.8,2.07 1.04,0.66 2.09,1.24 3.16,1.73 1.08,0.5 2.14,0.88 3.18,1.19 1.05,0.3 2,0.44 2.88,0.44 2.12,0 3.68,-0.55 4.64,-1.65 0.99,-1.08 1.47,-2.41 1.47,-3.97 0,-0.83 -0.1,-1.57 -0.3,-2.21 -0.19,-0.64 -0.56,-1.27 -1.09,-1.83 -0.55,-0.56 -1.28,-1.12 -2.25,-1.67 -0.97,-0.56 -2.19,-1.15 -3.69,-1.76 -2.05,-0.91 -3.77,-1.87 -5.16,-2.86 -1.38,-1 -2.49,-2.11 -3.32,-3.3 -0.84,-1.2 -1.42,-2.51 -1.79,-3.9 -0.35,-1.38 -0.53,-2.92 -0.53,-4.56 0,-2.12 0.38,-4.06 1.15,-5.81 0.77,-1.73 1.8,-3.23 3.12,-4.5 1.32,-1.24 2.87,-2.23 4.66,-2.91 1.77,-0.69 3.68,-1.03 5.69,-1.03 1.82,0 3.62,0.23 5.38,0.64 1.77,0.45 3.47,1.19 5.15,2.24l0 8.81c-1.6,-0.86 -3.29,-1.59 -5.06,-2.15 -1.79,-0.58 -3.54,-0.86 -5.26,-0.86 -2.03,0 -3.54,0.53 -4.57,1.55 -1.02,1.02 -1.54,2.33 -1.54,3.9 0,0.66 0.11,1.3 0.32,1.89 0.22,0.58 0.58,1.16 1.1,1.71 0.52,0.54 1.23,1.1 2.16,1.67 0.9,0.58 2.07,1.16 3.47,1.75 1.96,0.83 3.64,1.69 5.06,2.62 1.42,0.92 2.59,1.95 3.53,3.09 0.92,1.15 1.6,2.45 2.04,3.91 0.45,1.47 0.66,3.17 0.66,5.09z"/>
 </g>
</svg>
